<?xml version="1.0" encoding="UTF-8"?>
<svg width="479.36" height="592.64" version="1.1" viewBox="0 0 479.36 592.64" xml:space="preserve" xmlns="http://www.w3.org/2000/svg" xmlns:xlink="http://www.w3.org/1999/xlink"><defs><linearGradient id="linearGradient134" x1="203.99" x2="253.1" y1="28.507" y2="294.69" gradientUnits="userSpaceOnUse"><stop stop-color="#bbd6f3" offset="0"/><stop stop-color="#425eb7" offset="1"/></linearGradient></defs><path d="m230.77 28.385c-5.4804 0.02029-11.216 0.11805-17.16 0.89062-37.948 4.9319-67.743 25.883-87.355 52.963l0.34766-0.44141c-17.319 20.136-37.183 56.324-45.387 95.693-8.204 39.369-4.2505 82.715 28.385 113.13a6.7367 6.7367 0 0 0 10.795-5.041c0.60702 0.51527 1.1727 1.0554 1.8594 1.5234a6.7367 6.7367 0 0 0 3.8984 0.46485c1.0093 1.8856 2.2859 3.7403 3.873 5.5508-0.93889 0.37376-1.8917 0.69688-2.8066 1.1562-6.2426 3.1342-12.803 7.743-13.725 16.25a6.7367 6.7367 0 0 0-0.0176 0.18359c-0.5571 6.8955 1.8072 13.306 5.1582 18.879-0.48655 1.5494-0.27618 1.7968-0.26953 2.1738 8e-3 0.45156 0.036 0.82093 0.0703 1.2305 0.0686 0.81907 0.17597 1.7552 0.31641 2.8379 0.1954 1.5065 0.51086 3.4317 0.80859 5.2871-1.8416 3.175-4.6375 8.2257-4.541 15.104 0.0599 4.2685 2.5412 7.7172 3.8672 9.1758 0.45867 0.50455 0.47312 0.53624 0.5586 0.63867 0.0279 2.0679-0.12425 5.9167 1.7793 10.453-0.10024-0.32991-0.19933-0.66073-0.19922-0.66016 6e-3 0.0281 0.0176 0.0387 0.0234 0.0664 0.0321 0.10794 0.0968 0.32163 0.1875 0.625 0.13069 0.30992 0.17657 0.59913 0.32813 0.91211l-0.45117-1.3594c0.40176 1.7116 1.109 2.6815 1.6797 3.377l-0.52539-0.73633c0.0787 0.12751 0.16398 0.26256 0.25586 0.40039 2.3293 3.494 5.4761 5.801 10.209 8.3809 4.7329 2.5799 10.841 4.7907 17.82 4.8691 2.3589 0.0265 3.7599-0.0564 5.4023-0.11133 0.22576 0.83114 0.5565 1.5263 0.8418 2.2988-4.5191-0.22396-11.246-0.52539-11.246-0.52539a6.7367 6.7367 0 0 0-5.1641 1.9961c-3.0974 3.1412-6.744 8.7489-8.6113 17.008-2.5709 2.0382-2.1443 3.1646-2.3828 4.0606-0.26177 0.98357-0.38811 1.859-0.48633 2.832-0.19643 1.9462-0.22556 4.2128-0.0391 6.7656 0.2848 3.8982 1.0386 8.427 2.8945 12.857-0.15994 0.52717-0.36053 0.67756-0.4707 1.5957-0.61701 5.1416 1.6171 7.8586 4.0195 10.963s5.6785 6.1861 9.7715 9.0254c7.119 4.9384 16.898 8.8868 28.184 9.4395 0.84631 0.864 1.7643 1.3704 2.4648 1.7402 1.3122 0.69278 2.4657 1.0301 3.6856 1.3359-1.3683 3.0086-2.4848 5.4397-4.4336 9.916-3.0206 6.9382-6.1309 14.278-6.1309 21.758 1e-5 8.8584 3.1777 19.273 4.752 24.416 0.66677 5.4787 0.076 12.052 2.1758 18.986 1.068 3.5267 3.1522 7.2595 6.625 9.9453 3.4678 2.6819 7.9476 4.1741 13.27 4.7051 5.7134 0.58939 11.328-2.4803 13.506-6.3066 2.1796-3.829 2.1029-7.2817 2.043-9.3789a6.7367 6.7367 0 0 0 0-2e-3c0.0201 0.70249 0.11939-1.0434 0.40234-2.8555s0.66306-4.1316 0.96875-6.6191c0.48489-3.9456 1.1644-8.0905 0.0625-12.559 4.708-9.6832 11.931-18.569 18.373-28.867-1.0514 7.1694-2.6059 17.366-2.8438 19.459-0.41613 3.6619-0.42651 9.0753-0.47852 14.131-0.026 2.5278-0.0471 4.8892-0.0879 6.5781-0.0173 0.71706-0.0396 1.2214-0.0605 1.6055-0.51826 1.333-0.68628 2.3917-0.77344 3.127l0.64844-1.6953a6.7367 6.7367 0 0 0-0.57422 4.4766c-0.20664-0.86225-0.25571-1.5602-0.22852-1.9766 0.12598-1.9288 0.34584-1.5281 0.11524-1.0176-0.46122 1.0211-2.1043 4.1873-5.9863 10.686-5.0293 8.4187-4.0554 16.949-0.76172 21.801 3.2937 4.8515 8.0293 6.7539 8.0293 6.7539a6.7367 6.7367 0 0 0 1.1309 0.37305s9.9118 2.9287 19.662-1.25c10.716-4.5926 15.13-13.508 16.893-18.83 0.49665-0.61324 0.9991-1.2224 1.4746-1.8516l-0.45117 0.53711c2.582-2.7645 4.469-5.8501 5.9492-8.916 5.0131-8.7122 8.651-18.362 11.162-27.852 0.30085-0.83966 0.49085-1.5659 0.54687-2.1543 0.43801-1.7705 0.84479-3.5346 1.2051-5.2773a6.7367 6.7367 0 0 0 0.13086-0.99023c0.0876-1.5769 2.3978-18.035 3.4238-22.842-0.0443 0.20741 0.64374-2.0791 1.6152-4.6621 0.59705-1.5874 1.4839-3.7905 2.2891-5.8203 0.36757-0.0999 0.69691-0.23881 1.0352-0.35352 5.777 0.62748 11.454-0.67502 16.598-2.875 4.2151-1.8028 7.9155-4.2943 11.27-7.0078 0.91837 0.0781 1.8354 0.0841 2.6309-0.0625 1.8637-0.34351 3.4553-1.0571 5.2129-2.0703 5.7984-3.3426 8.5533-7.6531 10.123-10.463 2.4205-0.66913 4.9795-1.6166 7.6836-3.3477 0.74333-0.47584 1.5003-1.4071 2.1191-2.4707a6.7367 6.7367 0 0 0 0.45313-1.1758c0.17507-0.46396 0.47749-0.89472 0.52734-1.3652 0.13972-1.3187-0.0943-2.2362-0.38476-2.9922a6.7367 6.7367 0 0 0 8e-3 -0.23242c-0.10751-0.26898-0.27971-0.41731-0.39453-0.66992-0.0304-0.0556-0.0609-0.15819-0.0898-0.20898l-0.0215 0.0215c-1.4582-3.0994-3.399-5.1642-5.7812-7.6055-2.6267-2.6917-5.7243-5.4918-8.7793-8.1406-3.055-2.6488-6.0633-5.1345-8.4238-7.0781-1.9244-1.5844-2.9962-2.5157-3.377-2.8184-0.12673-0.19708-0.25592-0.34342-0.34766-0.68164-0.2838-1.0463-0.59913-2.6247-0.85742-4.2305-0.1119-0.69568-0.10733-0.92561-0.20117-1.6094 1.2152-0.30661 2.8106-0.52626 3.8418-0.86914 2.7625-0.91853 4.6515-1.3581 7.1055-3.8691a6.7367 6.7367 0 0 0 1.8262-5.8106c-3.0187-18.201-8.6134-32.805-11.312-41.887 0.30682-1.9866 0.66242-4.004 1.0195-6.0293 0.32436-0.17301 0.64733-0.34367 0.97266-0.51757l0.082-0.0449c4.0364-2.0874 10.371-5.4165 15.85-8.5664 2.7538-1.5831 5.2684-3.0986 7.3066-4.5078 1.0191-0.70459 1.905-1.3539 2.8105-2.1934 0.45277-0.41974 0.91847-0.86791 1.4707-1.6465 0.55223-0.77857 1.5147-1.9467 1.4238-4.582-0.10878-3.1548-0.77458-3.3057-1.2598-4.2871s-1.0545-1.9824-1.7148-3.0918c-1.3207-2.2188-2.9987-4.8197-4.7442-7.4473-2.4552-3.696-4.2043-6.164-5.9414-8.6524 1.5823-2.6523 3.1573-5.2952 4.9805-8.2246a6.7367 6.7367 0 0 0 0.0332-0.0508c1.1885-1.9491 2.4368-3.913 3.709-5.9102l0.0117-0.0176c3.7059-5.6236 7.7542-11.439 12.334-17.285 22.101-28.211 27.842-43.402 30.396-51.775 1.5444-5.0631 1.1899-9.6799-0.60547-12.971-0.0469-0.0859-0.10623-0.13927-0.15429-0.22266 1.7221-3.4171 4.2866-7.4044 7.5488-11.344a6.7367 6.7367 0 0 0 1.5469-4.1621c0.0568-2.8391-0.27264-5.5455-0.78516-8.1719 3.4106-2.4825 5.587-4.7564 6.8418-6.5879 2.9821-1.7938 5.9361-4.7913 6.7285-9.1934 0.47212-2.6229 0.19419-4.6427-0.19141-6.3164 0.0104-0.0407 0.0249-0.0783 0.0352-0.11914 0.36404-1.4562 0.37078-2.8588 0.22851-4.1172-0.0578-0.7777-0.15567-1.5754-0.38672-2.3808a6.7367 6.7367 0 0 0-0.18945-0.56641c-0.2816-0.73035-0.73718-1.7268-1.3711-2.8086 0.033-0.41832 0.15289-0.74689 0.13281-1.2168-0.31109-7.2794-4.0036-11.508-6.0586-13.826-0.0368-0.11513-2e-3 -0.18664-0.0449-0.30469-1.9984-5.4769-5.3028-6.6576-7.8594-8.3144l0.24219 0.16406c-0.46582-0.33148-1.1013-0.66097-1.6562-0.99805a6.7367 6.7367 0 0 0-1.4902-3.2754c-1.3013-0.87974-2.6426-1.4963-3.957-1.957-0.26344-0.0949-0.53112-0.18404-0.80469-0.26562-1.8722-0.57058-3.5931-0.79405-5.0918-0.92969a6.7367 6.7367 0 0 0-0.0234-2e-3c-0.41646-0.0362-0.7118-0.0483-0.88477-0.0586l8e-3 2e-3c-1.9526-0.11882-3.8122-0.093-5.584 0.10157-0.40914 0.0403-0.78136 0.10487-1.1562 0.16797-0.34998-0.0418-0.64554-0.085-1.0469-0.1211l0.84765 0.15039c-0.0318 6e-3 -0.068 0.01-0.0996 0.0156-1.1022-0.23047-2.0219-0.27502-2.5449-0.25196l0.68359 4e-3c-1.8301-0.10518-3.7789-0.33091-6.6797 0.70508-2.2973 0.82045-2.7894 1.5883-3.5723 2.3203s-1.4881 1.5023-2.2246 2.3555c-1.155 1.338-2.3597 2.9514-3.5508 4.5508-15.615-60.546-69.035-108.36-128.32-108.14zm0.0508 13.473c60.351-0.22336 116.89 58.635 119.39 125.64a6.7367 6.7367 0 0 0 9.8789 5.0254 6.7367 6.7367 0 0 0 1.4336-0.79882l-1.1836 0.59961a6.7367 6.7367 0 0 0 2.6328-2.0762c0.04-0.0804 0.48365-0.23899-0.91016 1.1758a6.7367 6.7367 0 0 0 2.4258-5.0976c-0.0674-1.5014-0.21416-4.9991-0.28711-8.2227-0.0365-1.6118-0.0538-3.1645-0.0371-4.291 6e-3 -0.37319 0.0184-0.58765 0.0293-0.83594-0.0821 0.36002 0.33737-0.61631 1.1856-1.9551 0.97889-1.5451 2.2922-3.478 3.6387-5.3359 1.3465-1.858 2.7446-3.6604 3.8184-4.9043 0.31268-0.36221 0.48361-0.527 0.71484-0.76953 0.27391-0.0214 0.18325-2e-3 0.79102 0.0332a6.7367 6.7367 0 0 0 0.4082 2e-3 6.7367 6.7367 0 0 0 0.27148 0.0488c0.49978 0.045 0.98391 0.1063 1.377 0.16211a6.7367 6.7367 0 0 0 2.3301-0.0781c-0.58525 0.12274-0.24813 0.0634 0.42382-0.0488a6.7367 6.7367 0 0 0 0.18555-0.0352c0.17334-0.034 0.31143-0.0522 0.42188-0.0625a6.7367 6.7367 0 0 0 0.11914-0.0117c0.81128-0.0904 2.0245-0.12573 3.3203-0.0469a6.7367 6.7367 0 0 0 8e-3 2e-3c0.28199 0.0168 0.43514 0.0246 0.49414 0.0293 2e-3 2.2e-4 3e-3 -2.3e-4 6e-3 0 0.33618 0.0305 0.48689 0.0909 0.77539 0.13086a6.7367 6.7367 0 0 0 2.9922 3.334c0.24554 0.13002 0.61134 0.32832 1.043 0.57422a6.7367 6.7367 0 0 0 0.39648 0.20898c0.28486 0.13799 0.68847 0.37983 1.1895 0.73633a6.7367 6.7367 0 0 0 0.24218 0.16406c1.7958 1.1638 3.295 3.7201 2.5312 1.627-0.31384-0.86021-0.30031-1.4131-0.28711-1.6992a6.7367 6.7367 0 0 0 1.5566 4.627c0.90632 1.0858 3.8295 6.4485 3.9551 7.0293a6.7367 6.7367 0 0 0 1.1191 6.7012c0.0465 0.0526 0.17877 0.21039 0.32032 0.40234a6.7367 6.7367 0 0 0 0.51562 0.61328c-0.0559 0.20064-0.11462 0.42388-0.16211 0.56446a6.7367 6.7367 0 0 0-0.3457 2.5215l0.0215 0.39649a6.7367 6.7367 0 0 0 0.39649 1.9375c0.075 0.20598 0.25649 0.99086 0.15429 1.5586 0.0124-0.0686 0.26099-0.14503-0.79687 0.28125a6.7367 6.7367 0 0 0-3.7324 3.7363c0.34777-0.8651-0.12916 1.4734-6.8301 5.3516a6.7367 6.7367 0 0 0-2.9746 8.0762c0.71612 2.0243 1.0782 4.288 1.209 6.6973-4.1318 5.1576-8.1074 10.711-10.021 17.02a6.7367 6.7367 0 0 0 3.9375 8.207c-0.60586-0.24293-0.91828-0.5423-1.0859-0.84961s0.35709-0.0727-0.45508 2.5898c-2.297 7.5304-6.7296 20.099-28.115 47.396-4.8824 6.232-9.1491 12.368-12.99 18.197a6.7367 6.7367 0 0 0-0.0566 0.0879c-1.2809 2.0109-2.5852 4.0594-3.873 6.1699-2.5941 4.1682-5.2897 8.4683-7.4277 12.279a6.7367 6.7367 0 0 0 0.3711 7.1777c1.1825 1.6759 4.8752 6.9384 8.2324 11.992 1.4256 2.146 2.6671 4.1117 3.7285 5.8457-1.3531 0.86317-2.6796 1.721-4.5137 2.7754-5.1681 2.9711-11.462 6.2842-15.404 8.3223a6.7367 6.7367 0 0 0-0.082 0.0449c-0.90824 0.48562-1.821 0.97189-2.7383 1.4609a6.7367 6.7367 0 0 0-0.10742 0.0703 6.7367 6.7367 0 0 0-0.29492 0.0879 6.7367 6.7367 0 0 0-0.57031 0.27734c-8e-3 4e-3 -0.0801 0.041-0.0801 0.041l0.0332 0.0195a6.7367 6.7367 0 0 0-3.6074 4.5606c-0.69886 3.7527-1.3722 7.6576-1.9316 11.439a6.7367 6.7367 0 0 0 0.18555 2.8281c2.6339 9.261 7.33 21.763 10.359 36.727-1.7732 0.52804-3.8864 1.0907-6.8457 1.5273a6.7367 6.7367 0 0 0-5.7246 7.2812c0.0927 1.0062 0.43413 4.5751 1.0391 8.3359 0.30247 1.8804 0.66054 3.7949 1.1543 5.6152 0.49375 1.8204 0.36957 3.3559 3.0586 6.0449 1.4775 1.4775 2.7628 2.3996 5.1074 4.3301s5.2639 4.3425 8.1621 6.8555c2.5235 2.188 4.8854 4.3924 6.9316 6.418a6.7367 6.7367 0 0 0-3.7461 2.6016c-0.18244 0.34318-4.1245 6.2456-6.4394 7.6836a6.7367 6.7367 0 0 0-6.8945 1.1816c-2.5739 2.6531-6.7065 5.5472-10.902 7.3418-4.1959 1.7946-8.3741 2.3901-11.025 1.8027a6.7367 6.7367 0 0 0-6.168 1.8672c4e-3 -4e-3 0.0136-0.0156 0.0176-0.0195 0.54602-0.53254 0.83393-0.69389 1.043-0.82421 0.41808-0.26065 0.51804-0.2821 0.56641-0.30274 0.0967-0.0413-0.10071 0.0389-0.31055 0.0957-0.41968 0.11356-1.158 0.0276-0.29102 0.1543a6.7367 6.7367 0 0 0-7.2188 4.1406c-1.4738 3.6456-2.8097 7.0196-3.8476 9.7793-1.038 2.7598-1.7296 4.4837-2.1797 6.5918-1.2992 6.0857-3.194 18.474-3.5938 24.021-0.34707 1.6719-0.73021 3.3581-1.1543 5.0488a6.7367 6.7367 0 0 0-0.16211 0.92188 6.7367 6.7367 0 0 0-0.22656 0.58789c-2.3022 8.7146-5.6592 17.504-10.025 24.998a6.7367 6.7367 0 0 0-0.24805 0.4668c-1.0625 2.2052-2.2812 4.1104-3.6758 5.6035a6.7367 6.7367 0 0 0-0.45117 0.53711c-0.58904 0.7794-1.19 1.5315-1.8008 2.2578a6.7367 6.7367 0 0 0-1.332 2.5273c-0.59791 2.1452-3.5397 8.9531-9.7969 11.635-3.5654 1.528-9.6425 0.71017-10.633 0.57031-0.46626-0.29748-1.1654-0.79474-1.7344-1.6328-0.8164-1.2026-1.9207-2.1292 1.1816-7.3223 3.9956-6.6882 5.7507-9.9489 6.6992-12.049 0.26334-0.58298 0.49662-1.0262 0.69141-1.6211a6.7367 6.7367 0 0 0 0.084-0.0293c0.0473-0.0498 0.0916-0.0949 0.13672-0.14062a6.7367 6.7367 0 0 0 0.41407-1.3633l0.35351 0.26562c0.51193-0.77811 0.70085-1.3184 0.80078-1.6348l-0.83984 0.33593a6.7367 6.7367 0 0 0 0.37695-4.4941c0.0126-0.35677 0.0332-0.65577 0.043-1.0586 0.0453-1.8728 0.0659-4.2507 0.0918-6.7656 0.0517-5.0299 0.18566-10.912 0.39453-12.75 0.31566-2.7778 4.2631-29.509 6.5664-44.895a6.7367 6.7367 0 0 0-5.916-7.6934c-0.0832-9e-3 -0.14219-0.016-0.18555-0.0215-0.17436-0.0228-0.4111-0.0663-0.70508-0.13672a6.7367 6.7367 0 0 0-0.13476-0.0312c-1.1877-0.2589-2.3803-0.64834-4.5137-2.3672a6.7367 6.7367 0 0 0-10.926 4.5508c-0.30664 2.9576-0.75312 6.9045-1.2402 10.268-0.24356 1.6816-0.49928 3.2241-0.73047 4.3438s-0.697 2.1024-0.23047 1.1934c-6.274 12.225-17.419 23.483-24.348 39.326a6.7367 6.7367 0 0 0 0.0918 5.5996c-0.11852-0.24837 0.44862 4.3799-0.0781 8.666-0.26337 2.1431-0.61324 4.2965-0.9082 6.1856-0.29497 1.889-0.62088 3.0723-0.55664 5.3203 0.0244 0.87258-0.19424 1.7768-0.25196 2.041-0.13443-0.0475 0.0157-0.0903-0.44922-0.13867a6.7367 6.7367 0 0 0-0.0332-4e-3c-3.6239-0.35952-5.4174-1.2174-6.3789-1.9609-0.96148-0.74359-1.466-1.5183-1.9726-3.1914-1.0133-3.3463-0.77009-9.8096-1.7285-17.135a6.7367 6.7367 0 0 0-0.23828-1.0977c-1.3738-4.4915-4.3808-16.143-4.3809-21.266 0-2.8623 2.2056-9.9396 5.0098-16.381s5.836-12.028 7.3184-16.539a6.7367 6.7367 0 0 0 0.33008-1.7754l0.10546-2.166a6.7367 6.7367 0 0 0-6.2852-7.0488c-2.2802-0.15021-4.1186-0.44178-5.4043-0.7168a6.7367 6.7367 0 0 0-5.7363-3.3574c-9.9921 0.50733-18.777-3.0254-24.9-7.2734-3.0619-2.124-5.4306-4.4377-6.7969-6.2031-0.38311-0.49504-0.42794-0.77188-0.59375-1.1621a6.7367 6.7367 0 0 0-0.0527-6.0859c-1.6873-2.7727-2.7465-7.2474-3.0137-10.904-0.12975-1.776-0.0854-3.3302 6e-3 -4.3027-0.17038 0.37521-0.80354 0.99174-1.7988 1.7559a6.7367 6.7367 0 0 0 1.8613-2.3379c0.012-0.0673 0.0462-0.29968 0.0371-0.26563-4e-3 0.0132-1e-3 0.15526 0.0215 0.19336a6.7367 6.7367 0 0 0 1.9062-2.3965c0.77427-5.409 2.3227-8.5862 3.8555-10.715 3.0858 0.16497 11.469 0.62519 19.248 0.89843a6.7367 6.7367 0 0 0 5.9512-10.299c-0.41569-0.66599-1.8698-3.0897-3.0312-5.75-1.1614-2.6603-1.7098-5.7302-1.6582-6.1426-0.0239 0.19124-0.0515 0.29803-0.0644 0.34765a6.7367 6.7367 0 0 0-8.0703-8.2598c-0.28264 0.067-3.0324 0.53573-9.8633 0.45898-4.146-0.0466-8.2876-1.4608-11.523-3.2246-3.2359-1.7639-5.7766-4.5194-5.4473-4.0254l-2e-3 -2e-3a6.7367 6.7367 0 0 0-0.0312-0.0449 6.7367 6.7367 0 0 0-0.0117-0.0332c-0.27039-0.55835-0.54729-4.0128-0.84766-7.6172-0.37109-4.4531-3.2029-6.7476-3.9863-7.6094s-0.36438-0.10068-0.36719-0.30078c-0.018-1.2823 2.8294-8.4799 3.9356-10.447a6.7367 6.7367 0 0 0 0.76758-4.4453c-0.43983-2.5503-0.83164-5.1276-1.0801-7.043-0.0433-0.33376-0.0538-0.4887-0.0879-0.77734a6.7367 6.7367 0 0 0 0.3125-7.3926c-3.4137-4.5935-5.6268-10.57-5.418-13.984 0.0408-0.0502 2.5472-3.7218 6.3457-5.6289 1.9152-0.96157 3.9363-1.5507 5.1406-1.6758 1.0392-0.10798 0.89554 0.0775 0.26758-0.42774a6.7367 6.7367 0 0 0 6.0859 2.0859c2.2787-0.40223 2.5984-0.0199 3.5664 0.95703 0.96803 0.97691 2.0105 3.0706 2.5078 5.0176a6.7367 6.7367 0 0 0 8e-3 0.0273c0.0346 0.1331 0.0559 0.26556 0.082 0.39844a6.7367 6.7367 0 0 0-4.5781 7.3145c0.01 0.0636 0.0267 0.20948 0.0391 0.40625a6.7367 6.7367 0 0 0 6.7461 5.5078c0.45092 0.48742 0.9002 0.96465 1.3691 1.5039a6.7367 6.7367 0 0 0 8.5049 1.3809c6.1331-3.6193 18.924-13.831 30.957-27.053a6.7367 6.7367 0 0 0 1.5684-5.2539 6.7367 6.7367 0 0 0-7.2773-8.666c-1.7745 0.34725-3.2766 0.47518-4.832 0.64648 0.11838-5.997-0.96577-11.843-3.207-16.678a6.7367 6.7367 0 0 0-10.172-2.543c-4.2274 3.193-7.85 7.3763-10.473 12.033-0.58837 1.0448-1.117 2.1285-1.6035 3.2285-6.5167-6.6492-7.0352-15.781-7.0352-15.781a6.7367 6.7367 0 0 0-12.846-2.4688s-1.2337 2.7816-2.4121 5.5059c0.0547-1.1377 0.16406-1.9336 0.16406-1.9336a6.7367 6.7367 0 0 0-10.857-5.332c-0.0404-0.89368-0.1146-1.762-0.084-2.707 0.20288-6.2622 2.0321-12.449 2.418-13.641a6.7367 6.7367 0 0 0-11.945-5.9121c-5.4572 7.8794-8.2799 15.913-9.3027 23.576-16.559-24.678-17.956-55.379-11.66-85.592 7.6403-36.664 27.048-71.793 42.412-89.656a6.7367 6.7367 0 0 0 0.34766-0.44141c17.767-24.531 44.15-43.083 78.18-47.506 4.9762-0.64673 10.136-0.75757 15.477-0.77734zm-70.852 198.76a6.7367 6.7367 0 0 0-1.0781 1.1895 6.7367 6.7367 0 0 0-4.2891 2.2949l-0.11719-0.38867c-0.16715 0.20308-0.41807 0.5241-0.68555 0.97656l0.43945-0.0391a6.7367 6.7367 0 0 0 0.0469 7.6191c0.0533 0.0629 0.132 0.15476 0.22656 0.26367a6.7367 6.7367 0 0 0 2.9785 1.1992l-0.91602-3.0586a6.7367 6.7367 0 0 0 0.96485 0.90821l-0.52344 0.15429c0.096 0.10021 0.20465 0.21469 0.32812 0.3418l0.26368-0.43164a6.7367 6.7367 0 0 0 0.98437 0.92188l-0.83791 1.2696a6.7367 6.7367 0 0 0 4.502-0.3086 6.7367 6.7367 0 0 0 5.2207-3.1348l0.12109 0.3164c0.27526-0.46342 0.357-0.90107 0.50977-1.3496a6.7367 6.7367 0 0 0-1.0996-6.6699c-0.0758-0.078-0.16413-0.16947-0.26563-0.27539a6.7367 6.7367 0 0 0-2.5879-0.6875l1.457 3.8008a6.7367 6.7367 0 0 0-1.416-1.4258l-4.5332 6.8496-1.9902 0.58984 4.666-7.6289 1.5332-0.13867a6.7367 6.7367 0 0 0-0.89649-0.90235l0.76758-1.2539a6.7367 6.7367 0 0 0-3.7734-1.002zm3.8457 0.22461 0.15625 0.4043 0.18359-0.30078c-0.14768-0.0454-0.26031-0.0787-0.33984-0.10352zm0.74414 2.7129-0.11133 0.16797 0.23633-0.0215c-0.0464-0.0534-0.0844-0.0986-0.125-0.14649zm-8.543 0.27735a6.7367 6.7367 0 0 0-0.0566 0.66211l0.54297-0.0508a6.7367 6.7367 0 0 0-0.59375 0.65625 6.7367 6.7367 0 0 0-0.22266 2.6152l-0.93359-3.1113 1.0059-0.0918c0.10012-0.23077 0.11563-0.44031 0.25781-0.67968zm10.01 2.7793 0.84766 2.209-1.373 0.40625a6.7367 6.7367 0 0 0 0.52539-2.6152zm-0.6289 4.9336c-0.2147 0.36317-0.40505 0.60325-0.50977 0.73047a6.7367 6.7367 0 0 0 0.0937-0.46875 6.7367 6.7367 0 0 0 0.41602-0.26172zm-7.8027 2.5312-0.17578 0.26758c0.0794 0.0247 0.17387 0.0542 0.28321 0.0879zm-51.467 28.74a6.7367 6.7367 0 0 0 0.19336 0.54883l-0.70118-0.25391zm9.6855 3.4043-0.0566 0.54297-0.54297-0.19531a6.7367 6.7367 0 0 0 0.59961-0.34766zm28.014 1.957c1.0124 1.6065 2.195 3.1967 3.5547 4.7285-0.52593-0.0568-1.063-0.0275-1.6016-0.0371-1.0418-0.62499-2.111-1.1027-3.1992-1.3633 0.33014-1.0577 0.84411-2.1934 1.2461-3.3281zm49.625 4.0039c0.0381 0.0339 0.27906 0.0861 0.89062 1.1621l0.0898 0.87304a6.7367 6.7367 0 0 0-0.98046-2.0352zm-24.064 2.291a6.7367 6.7367 0 0 0 5.3809 7.4766c-4.129 3.8524-7.1879 6.3629-10.469 8.9942l2e-3 0.0156c-8e-4 -5e-3 -3e-3 -0.0103-4e-3 -0.0156-5e-3 4e-3 -7e-3 4e-3 -0.0117 8e-3 -9e-3 -0.0473-5e-3 -0.0873-0.0137-0.13477-0.10141-0.63743-0.22836-1.2703-0.39063-1.8965-0.5729-2.2395-1.4956-4.695-2.918-7.084a6.7367 6.7367 0 0 0 8.4199-7.334c-9.5e-4 -5e-3 5e-3 -0.0239 4e-3 -0.0293zm-17.328 30.326c-0.0881-0.0689 0.13288 0.1157 0.40039 0.38477 0.0493 0.0496 0.13388 0.15163 0.1875 0.20703-0.48865-0.27164-0.54061-0.55484-0.58789-0.5918zm-20.223 6.7188c5.6e-4 0.0319 0.0984 0.10704 0.0449 0.54102-4e-3 -0.0465-0.018-0.15586-0.0215-0.19727-0.0196-0.2342-0.0244-0.39646-0.0234-0.34375zm-0.89258 2.9375c-0.59505 1.0201-1.1979 1.5114-1.4355 1.6621-0.30105 0.191-0.2936 0.15807-0.28321 0.1543a6.7367 6.7367 0 0 0 1.7188-1.8164zm60.482 0.69141a6.7367 6.7367 0 0 0-5.5469 1.998l-0.0156-0.0352c-0.1608 0.17629-0.3283 0.35815-0.50195 0.54688l0.18164 0.0918a6.7367 6.7367 0 0 0-1.8066 3.2441 6.7367 6.7367 0 0 0 11.539 5.7852c0.17279-0.18779 0.35343-0.38419 0.54102-0.58984a6.7367 6.7367 0 0 0 1.002-2.7051l0.10547 0.0527c0.0341-0.17089 0.0468-0.36105 0.0742-0.53906a6.7367 6.7367 0 0 0-5.5723-7.8496zm-5.1074 2.9961 9.5742 4.8691-5.623 4.1074zm-53.111 32.754c0.0964 0.11747 0.27877 0.31223 0.47461 0.66602a6.7367 6.7367 0 0 0-0.47461-0.66602zm0.82032 1.6738c0.0569 0.18079 0.12286 0.27569 0.17187 0.5 9e-3 0.029 0.043 0.14661 0.043 0.14648a6.7367 6.7367 0 0 0-0.21484-0.64648zm9.9961 72.59c-0.28593 0.48051-0.52617 0.51372-0.53125 0.51953-8e-3 9e-3 0.24452-0.2478 0.53125-0.51953zm194.03 6.3926a6.7367 6.7367 0 0 0 0.0879 0.99023c-0.11319-0.19872-0.23323-0.54751-0.35742-0.83203-2e-3 -5e-3 0.0394 0.0487 0.0371 0.043zm2.6602 3.5371a6.7367 6.7367 0 0 0 0.15625 0.0176l-0.043 0.0449c-0.0136-7e-3 -0.11328-0.0625-0.11328-0.0625zm-14.348 4.2246c1.4509 1.6067 1.498 3.5879 1.498 3.5879a6.7367 6.7367 0 0 0-1.498-3.5879zm-142.49 3.3867c0.17916 0.37667 0.40185 0.50387 0.53516 1.0371 0.58177 2.3271 0.10147 2.0572 0.15234 1.8379a6.7367 6.7367 0 0 0-0.6875-2.875zm104.16 6.7012a6.7367 6.7367 0 0 0-1.5488 5.873l-0.27539-1.3066v-0.088c0.0394-2.9675 1.2116-3.9202 1.8242-4.4785zm-1.4316 6.4297a6.7367 6.7367 0 0 0 3.8262 4.0156l-0.34961 0.19922c-0.56231-0.2292-1.1074-0.5332-1.9043-1.3301l-0.93554-1.1738c0.22629 0.35939 0.23015 0.34136 0.23047 0.3418l-0.14454-0.20703-6e-3 -0.01c-0.0157-0.0238-0.0421-0.0645-0.0801-0.125-6e-3 -0.01 7.5e-4 7.8e-4 -6e-3 -0.01l-2e-3 -2e-3c-3e-3 -5e-3 -2e-3 -4e-3 -6e-3 -0.01-0.0526-0.0847-0.44534-0.84381-0.44532-0.84375zm-48.418 2.2793c0.0293 7e-3 0.068 0.0106 0.0977 0.0176 0.0114 3e-3 0.0257 0.0112 0.0371 0.0137zm-32.447 17.627a6.7367 6.7367 0 0 0-5.8457 12.137c0.2422 0.11989 0.0523 0.0224 0.13281 0.0586l-2e-3 4e-3c0.11339 0.0531 0.20412 0.0938 0.29883 0.13671 1e-3 5.7e-4 3e-3 1e-3 4e-3 2e-3 0.042 0.019 0.0946 0.0433 0.13282 0.0605a6.7367 6.7367 0 0 0 5.6602-12.225c0.28398 0.13525 0.2648 0.12455-0.0625-0.0332a6.7367 6.7367 0 0 0-0.01-4e-3c-0.33348-0.16017-0.13457-0.0608-0.10742-0.0449-0.0777-0.0351-0.15189-0.0687-0.20118-0.0918zm32.119 38.59c0.36886 0.16284 0.50392 0.24967 0.47266 0.23242a6.7367 6.7367 0 0 0-0.30273-0.0195 6.7367 6.7367 0 0 0-0.16993-0.21289zm-7.3887 2.0996 0.0254 0.0195a6.7367 6.7367 0 0 0-0.0176 0.0195zm-1.3711 0.93164a6.7367 6.7367 0 0 0-0.0273 0.62109 6.7367 6.7367 0 0 0-0.41797 0.44922c0.0645-0.2043 0.17337-0.56496 0.44531-1.0703zm-2.127 7.5684a6.7367 6.7367 0 0 0 3.3574 3.8242c-0.20243-0.10465-0.37581-0.12248-0.58594-0.25391-1.501-0.93883-2.4032-2.4697-2.7715-3.5703zm12.02 1.3887 4e-3 4e-3c1e-3 -2e-3 -0.057 0.0843-0.0156 0.0254a6.7367 6.7367 0 0 0 0.0117-0.0293zm-8.2754 2.6035a6.7367 6.7367 0 0 0 5.3027 0.0117c-0.75356 0.33838-2.693 1.1565-5.3027-0.0117z" fill="#fff" stop-color="#000000"/><g><path d="m299.22 443.74c-10.891 4.3813-22.048 8.503-33.525 10.76-1.7157 0.21749-3.5922 0.61599-5.2598 0.25196-1.1434-1.0909-2.5951 0.49281-3.7949 0.7539-4.0392 1.7664-8.2769 3.1092-12.369 4.7656-0.94028 1.1963-0.58927 3.0538-1.0352 4.4922-2.424 15.554-4.9283 31.102-7.2031 46.676-0.6666 3.2551 1.3872-0.15431 1.9631-0.698 4.1176-4.4426 10.889-6.7312 16.831-6.2142 6.1201 0.15647 12.187 3.655 16.156 8.2019 2.2693 2.3698 3.8176 5.7596 5.3686 8.6124 0.98989 1.0198 1.4073-1.2851 1.4316-2.0975 1.8995-9.6207 2.1912-19.38 4.25-28.963 3.8182-11.158 8.5288-21.973 12.875-32.932 1.6665-4.3101 3.6606-8.5185 5.0098-12.939 0.0215-0.41993-0.30282-0.66171-0.69727-0.66992zm-67.701 19.773c-0.0189 6.9e-4 -0.0382 2e-3 -0.0566 6e-3 -3.1386 0.41988-6.4555 1.2271-9.5586 0.71876-0.8728-1.451-2.7455-0.17998-3.9648-0.0352-8.0996 2.1484-16.403 3.7421-24.758 3.5469-1.3844 0.25644-3.2888-0.49241-4.3379 0.45899-0.17008 1.0215-7e-3 2.0903 0.13476 3.1172-1.0485 0.47586-1.4094 2.0472-1.8496 3.123 0.13451 4.958 1.4082 10.117 3.5134 14.814 2.2971 5.175 6.0803 9.4804 11.199 12.019 4.874 2.7431 11.192 3.9599 16.148 0.84279 2.8209-2.1345 4.5285-5.1549 6.4993-8.0239 2.4407-4.1519 5.5093-8.246 5.9316-13.207 0.78918-5.5848 1.3961-11.209 1.7422-16.836-0.0339-0.2688-0.35856-0.5554-0.64258-0.54492z" fill="#fff0e1" stroke-width=".47244"/><path d="m315.88 442.11c-4.1957-0.0936-8.3685 0.47922-12.514 0.98242-0.74364 0.18438-1.6085-0.0279-2.2773 0.36132-0.93541 1.2498-1.3386 2.8259-2.0234 4.2188-3.6995 8.7344-7.3918 17.472-10.949 26.266-0.2127 0.85627 0.82299 0.90969 1.3965 0.73047 1.2019-0.14349 2.3482-0.61796 3.4629-1.0176 4.5838 1.0529 9.3323-0.10157 13.656-1.6719 5.39-2.0534 10.493-5.2382 14.537-9.3906 0.37845 0.94999 0.92026 1.4617 1.9102 1.2969 3.0009-0.16954 5.6166-2.4743 7.4688-4.5176 1.7864-2.1525 3.4182-4.642 4.748-7.0938 2.9816-0.49159 5.5053-1.1666 8.1172-2.9492 0.63934-0.75082-0.23613-1.1792-0.81836-1.3945-6.6072-3.0939-13.734-5.2989-21.047-5.7344-1.8879-0.0773-3.7787-0.0914-5.668-0.0859zm-72.951 18.439c-3.1356 0.80756-6.2181 1.7053-9.3594 2.4277-0.92776 0.14124-1.4625 1.0366-1.3867 1.9277 0.0357 0.94475-0.52264 2.2054 0.53125 2.7871 2.307 2.179 5.2859 3.7257 8.4394 4.1387 1.0928-0.20158 1.0403-1.5875 1.2363-2.4316 0.40239-2.7411 0.84113-5.479 1.1953-8.2266-0.0373-0.34805-0.28892-0.64165-0.65625-0.62305z" fill="#1a1a1a" stroke-width=".23622"/><path d="m206.79 385.42c-4.6884 0.27021-9.418 0.41794-14.035 1.3398-0.7478 0.2035-1.8451 0.26745-1.9822 1.2322-0.78089 3.131-1.3146 6.3684-1.1575 9.605-0.70831 0.5265-1.4996 0.90182-2.3796 1.0563-4.7708 1.2886-9.3907 3.4934-14.419 3.5299-2.7168 0.17495-5.4499-0.25546-8.2042-0.27701-5.979-0.1633-11.953-0.53147-17.934-0.59854-0.7702-0.0564-1.5905 0.0324-1.9845 0.79764-3.7146 3.9274-5.917 9.1734-6.3522 14.541 0.0168 0.70606 0.8409 0.84719-0.18464 1.0891-0.72234 0.34069-1.7148 0.644-1.6218 1.6344-1.374 6.7681 0.0148 13.881 3.099 19.991 0.2885 0.70402 1.1455 0.51218 1.5425 0.02 0.75491-0.60882 1.4972-1.2453 2.2461-1.8408-1.5698 1.46-3.281 2.8499-4.4756 4.6482-0.33225 1.4365 0.67984 2.7562 1.3809 3.9185 4.3669 6.1245 10.679 10.721 17.578 13.618 6.2863 2.6177 13.173 3.7962 19.97 3.4056 0.77308 0.12719 1.2529-0.46085 1.3206-1.1758 0.78368-2.221 1.7134-4.3825 2.6169-6.5527-0.94593 2.9328-2.095 5.838-2.5673 8.8948-0.20817 0.84723 0.34431 1.6501 1.1455 1.9104 2.7565 1.0379 5.7486 1.2155 8.6609 1.431 4.2153 0.0688 8.446 0.10459 12.65-0.2394 6.6813-0.81934 13.261-2.4595 19.638-4.5568 0.64225-0.54211 0.19183-1.5751 0.32657-2.3252 5e-3 -0.90632 0.0529-1.8586 0.10803-2.7812 0.0307 2.0389-0.2479 4.1341 0.21997 6.1367 0.35782 1.0233 1.6389 0.64585 2.4556 0.67444 6.4067-0.45934 12.684-2.03 18.806-3.9142 5.5605-1.7525 10.987-3.9745 16.107-6.7644 0.33731-0.31464 0.10437-0.98845 0.42704-0.30826 0.4521 0.78843 1.2399 1.5794 2.2339 1.2942 4.7835-0.16825 9.4017-1.6044 13.985-2.8604 8.174-2.4273 16.311-5.0931 24.073-8.6472 0.55281-0.26346 1.1015-0.53588 1.6411-0.82544-0.44714 0.63223 0.41143 1.1636 0.98605 0.89091 5.212-0.84946 10.457-1.3464 15.72-1.1264 7.6679 0.13068 15.319 1.9497 22.308 5.187 0.52863 0.42023 1.4592-0.0682 1.0954-0.75718-1.996-2.6131-4.4333-4.8644-6.8129-7.1249-5.4921-5.0882-11.439-9.7523-17.027-14.67-1.3444-1.0417-1.548-2.9041-1.984-4.4524-0.89249-3.8916-1.5061-7.8437-2.0652-11.791-0.44196-0.86505-1.6035-0.27447-2.3154-0.30103-12.903 1.3418-26.088 0.30259-38.822-2.2946-12.046-2.4278-23.806-6.2707-35.131-11.057-9.3218-3.7874-18.814-7.2365-28.575-9.7056-0.77084 0.0341-1.5417 0.0682-2.3125 0.1023zm89.543 41.339c1.6962 1.7387 3.247 3.6222 4.5942 5.6443-1.3712-2.0283-2.9423-3.9169-4.634-5.6848zm7.6872 11.737c0.15608 0.45975 0.29735 0.92651 0.38061 1.4055-0.10932-0.43075-0.27696-1.086-0.38061-1.4055zm0.43579 1.8608c-0.0771 0.47899-0.58015 0.70003-0.0496 0.0648l0.0457-0.10774z" fill="#273755" stroke-width=".23622"/><path d="m190.83 387.05-1.3258 10.341s15.689-5.1265 43.443 2.1213c0.84708 0.22121 3.7291 1.1488 4.5755 1.1396 1.763-0.0191 2.5493-0.502 3.7628-0.1842 35.163 12.755 63.173 13.775 72.67 8.8556l-0.0884-0.97226s-16.882 1.5026-29.433-0.53033c-12.551-2.0329-31.201-6.2756-39.686-9.8995-8.4853-3.6239-31.82-12.286-35.002-12.374-3.182-0.0884-15.203 1.2374-18.915 1.5026z" fill="#1f2f47"/><path d="m228.46 35.908c-9.9216-0.05942-19.777 1.7004-29.328 4.2832-21.175 5.8102-40.573 17.656-55.67 33.57-21.682 22.76-35.126 53.263-37.092 84.65-1.1398 18.975 2.2558 38.591 11.875 55.162 7.4849 13.026 19.04 23.664 32.689 29.959 3.3374 1.5451 6.7364 3.0227 10.283 4.0117 1.0564 5e-3 0.69292-1.308 0.11133-1.7207-8.1958-9.1188-13.801-20.39-16.879-32.215-3.2426-11.691-3.9934-23.921-3.6543-35.994-0.0238-4.8566 0.58331-9.6432 1.1445-14.449-0.25193-1.0437-0.50393-2.0871-0.75586-3.1309 2.2588 8.4355 5.1621 16.743 9.1445 24.527 1.3417 2.1148 1.2058-0.60309 1.1367-1.6856-0.0971-8.2552 0.18051-16.481 1.4785-24.639 2.3639-15.317 6.8013-30.373 13.896-44.193 2.102-3.9573 4.3658-7.8821 7.1816-11.371 5.2027 15.854 13.485 30.85 25.148 42.873 7.0069 7.3222 15.205 13.553 24.373 17.92 1.8086 0.82449 5.3193 2.7149 7.2521 3.2141 0.22249-0.23827-1.1474-2.0753-1.6682-2.5246-4.0076-5.071-7.7378-10.32-10.838-16 1.8827 1.5447 3.9603 2.7388 6 4.0898 7.8226 4.7764 17.039 7.5344 26.157 8.3099 1.2862-0.23446-0.0182-1.5564-0.27627-2.2338-6.0986-12.574-12.358-25.069-18.291-37.723-0.56354-1.0992-0.78866-2.3444-1.377-3.4434 1.93 2.3778 4.4172 4.2388 6.5898 6.3867 4.918 4.6408 10.308 8.7747 16.164 12.166 10.096 6.0659 21.078 10.678 32.549 13.389 1.4079 0.26591 2.8223 0.91129 4.2539 0.78711 0.7501-0.96179-0.81101-1.6316-1.2715-2.3848-2.841-3.1488-5.4938-6.4614-8.1133-9.7949 1.3567 1.4346 2.4782 3.1611 4.0312 4.3789 4.1798 1.133 7.9503 3.3979 11.486 5.8477 3.8641 2.7133 7.3235 6.0159 10.398 9.5684 0.34136 0.54021 0.79921 1.5688 1.5059 1.1758 0.0655 0.64577 0.0338 1.2276-0.28125 1.7676 0.34763 4.3146 0.91717 8.6218 1.0586 12.971 0.62068 14.431-0.12602 29.304-5.4941 42.916-1.1719 3.0847-2.8228 5.9316-4.4805 8.7578-0.26214 1.0099 0.99793 0.98717 1.5879 0.64063 5.6506-1.6349 10.434-5.2736 14.609-9.3027 0.17909-0.21427 0.27602-0.28616 0.31641-0.27148 0.11427 0.0632-0.28408 0.96732-0.3125 1.2266-1.7449 5.3677-5.0037 10.039-8.2539 14.59-0.63088 1.0546-1.7556 1.964-1.9727 3.1914 0.47005 1.1142 1.739 0.0619 2.4492-0.21875 4.3735-2.1542 7.8442-5.7015 10.975-9.3613 0.79435-1.0147 1.5456-2.0628 2.2832-3.1191-2.5042 7.3943-5.1843 14.754-8.1191 21.984-0.10905 0.92557 1.0242 0.85566 1.4961 0.37304 7.0317-3.9105 13.141-9.3592 18.205-15.584 8.8958-10.891 14.154-24.408 16.246-38.236 0.26086-1.6518 0.47904-3.3087 0.66406-4.9707 0.11405 8.9882-0.29377 17.94-0.74219 26.914-0.24774 0.73701 0.45739 1.9381 1.209 1.1328 1.1712-2.7239 1.8262-5.6636 2.6523-8.5117 5.6376-21.102 5.4112-43.609 0.0273-64.736-8.3457-33.076-28.508-63.176-56.342-82.984-15.535-10.972-33.562-18.701-52.496-21.131-4.9415-0.75269-9.9334-0.83522-14.922-0.80469zm62.535 67.695c0.10299 0.16009 0.20558 0.32037 0.30859 0.48046 5.095 8.0059 9.1725 16.668 11.996 25.73-2.97-9.2116-7.151-18.023-12.305-26.211zm-169.39-1.5781c-1.019 0.63639-3.9136 6.0107-4.6348 6.9473-13.087 21.686-22.787 45.488-28.063 70.281-4.4243 21.112-5.4824 43.425 0.55078 64.336 3.8907 13.616 11.013 26.31 20.777 36.584 0.51292 0.51982 1.4525 1.9311 2.1035 0.80859-0.19671-2.1651-0.87306-4.2945-0.90039-6.4688-0.5693-8.5491 2.1434-16.995 6.6894-24.174 0.93457-1.5068 2.0206-3.3525 3.0976-4.7599-2.0138 5.9983-2.7744 12.737-2.4492 19.045 0.36765 5.2218 1.5966 10.917 5.6738 14.549 0.48779 0.59352 1.5978 0.60478 1.6758-0.32227 1.2435-4.2675 2.3126-8.5702 3.6055-12.824-0.8767 7.4138 0.17314 15.523 4.9238 21.527 0.41659 0.71738 1.4588 0.5279 1.5801-0.30078 2.4891-6.6761 5.2123-13.512 8.1875-19.83 1.1668 7.3907 3.1231 15.158 8.4746 20.703 2.3878 2.4975 5.3081 4.4879 8.3789 6.0117 1.1423 0.0108 0.66877-1.5794 0.9375-2.3516 1.2876-6.9511 5.726-13.077 11.309-17.244 0.59509-0.68514 0.92451-0.16396 1.1113 0.51172 2.6162 6.1168 2.862 12.73 2.6074 19.268 0.33773 1.0806 1.766 0.45665 2.6191 0.55468 12.439-0.75602 25.068-4.5826 34.719-12.703 1.7247-1.6116 3.58-3.141 5.041-4.998 0.22525-1.2031-1.399-0.89174-2.123-1.0488-12.162-0.87753-24.171-4.1953-35.004-9.8027-9.596-4.8272-18.167-11.461-25.67-19.121-1.2457-1.6302-3.4272-1.7942-5.1484-2.7012-10.005-4.2395-19.092-10.767-26.18-19.068-11.688-13.533-17.841-31.242-19.348-48.863-1.4659-16.933 0.74289-34.098 5.9453-50.289 2.0516-6.542 4.6936-12.859 7.543-19.088 0.27847-0.48695 2.6466-5.2018 1.9688-5.168z" fill="url(#linearGradient134)" stroke-width=".33407"/><path d="m381.67 133.18c-1.7595 0.096-3.6436 0.0237-5.2598 0.81641-0.59932-1.1307-2.1532-0.48552-3.209-0.64648-1.4434-0.11704-2.9493 0.28541-3.8438 1.5-4.0499 4.5517-7.6476 9.5142-10.846 14.697-1.2767 1.446-0.70334 3.3998-0.79297 5.1426 0.14404 3.8741 0.1379 7.7773 0.57422 11.627 0.61236 1.4048 2.478 0.80983 3.6641 0.9668 10.915-0.21148 21.929 5.6251 27.336 15.234 0.75346 1.1463 1.0191 2.5946 1.959 3.5977 1.2944 0.25311 2.3776-0.87434 3.4941-1.3965 2.3881-1.5644 4.7331-3.3471 6.459-5.6387 0.12869-0.3186 0.10927-0.60091-4e-3 -0.83007 0.1747-0.0484 0.34871-0.34137 0.52148-0.39346 2.8197-1.0381 4.9219-3.4277 5.0805-6.5289 7e-3 -1.1738-0.0759-2.5286-0.5625-3.5826-0.0839-0.0726-0.16714-0.121-0.25195-0.1504 0.6495-1.5698 1.0688-3.2392 0.60501-4.8563-0.50353-1.3059-1.1555-2.7432-2.3672-3.5215-0.0396-0.0196-0.0783-0.0319-0.11914-0.041 0.77561-2.004 0.73485-4.2972-0.1504-6.2832-1.0229-2.4381-2.4461-4.776-4.2637-6.6758-0.14093-0.16159-0.31545-0.17114-0.49804-0.15429 0.19638-1.8532-1.2077-3.4707-2.5918-4.582-1.834-1.4144-3.6698-3.0185-5.8906-3.7637-0.0627-8e-3 -0.12624-0.0106-0.18945-0.01 0.10737-0.53389 0.16578-1.0836 0.16992-1.6445-0.50405-1.7615-2.6524-2.1309-4.1992-2.4883-1.5887-0.29663-3.2095-0.40507-4.8242-0.39453z" fill="#fff0e1" stroke-width=".33407"/><path d="m153.04 322.41c-0.40792 0.078-0.45346 0.53131-0.469 0.87059-0.0798 1.0623-0.22169 2.119-0.33901 3.1685 0.0633 0.50005 0.69891 0.44228 0.91133 0.83158 0.5085 0.69465 0.86585 1.5431 0.78462 2.4182-0.0275 0.95565-0.51744 1.8228-1.0258 2.604-0.56281 0.72486-1.392 1.1772-2.1384 1.6739-1.9019 1.1314-3.9177 2.0555-5.9533 2.9058-1.8041 0.72613-3.597 1.4078-5.4855 1.8134-0.50275 0.0896-1.0414 0.22068-1.5253-0.0172-2.02-0.73728-3.7822-2.0025-5.3843-3.4057-0.64937-0.54541-1.2031-1.1806-1.8569-1.7228-0.35342-0.28735-0.9089-0.0425-0.9727 0.39895-0.34873 1.131-0.16413 2.3768 0.39783 3.4072 1.0572 1.9798 2.8606 3.4466 4.7636 4.5737 1.9091 1.0906 4.0413 1.9136 6.2601 1.9843 1.5001-7e-3 2.944-0.50596 4.3381-1.0125 3.035-1.1897 5.8838-2.9497 8.1437-5.3149 0.90603-0.95043 1.6916-2.0607 2.0214-3.3491 0.64919-2.2824 1.0696-4.6383 1.1829-7.0101 0.0245-0.97605 0.0144-2.0594-0.64582-2.8499-0.69234-0.90963-1.7078-1.5118-2.7451-1.9504-0.0854-0.0274-0.17428-0.028-0.26257-0.0177z" fill="#1a1a1a" stroke-width=".083517"/><path d="m155.17 320.08c-0.86894 0.28457-2.4401 0.43371-2.5166 1.5435 1.0123 1.14 2.7168 1.5776 3.5962 2.9248 0.77853 1.5824 0.2376 3.4908 0.13769 5.1792-0.46095 3.287-1.2102 6.7872-4.0781 8.8232-3.3302 2.5836-7.2224 5.0064-11.542 5.1987-4.1556-0.32665-8.2477-2.6372-10.523-6.1499-1.0916-1.5466-0.0515-3.5043-0.8335-5.0869-0.73652-0.82219-1.7055-2.9409-2.8306-1.457-1.7715 0.98507-0.45088 3.1146-0.45356 4.687 0.98122 5.2311 1.7321 10.563 3.457 15.611 2.0694 4.6738 5.9782 8.4255 10.408 10.874 2.2459 1.1982 4.9656 0.96516 7.084-0.3955 5.6456-3.2713 10.487-7.9436 14.197-13.294 2.4173-3.3845 1.8672-7.7981 1.5816-11.699-0.61297-4.0918-1.0531-8.317-2.6328-12.17-1.2526-1.8128-2.6862-3.9455-4.8994-4.5913l-0.0977-4.9e-4z" fill="#273755" stroke-width=".47244"/><path d="m160.43 325.18c0.44195 2.1213-1.2392 11.49-2.123 13.965s-10.783 8.9272-19.799 9.0156c-4.4175 0.36812-11.421-6.6946-11.902-9.541l0.32422 3.9727c4.1542 6.0104 9.1043 7.4248 11.049 7.248 10.165 0.26516 20.594-6.1882 21.654-8.8398s2.2988-11.312 2.2988-11.312-0.52967-1.9446-1.502-4.5078zm-33.824 13.439-0.02929-0.35937c-0.00548 0.10955 0.00774 0.23184 0.02929 0.35937zm35.525-8.6523c0.44195 2.1213-1.4149 11.224-2.2988 13.699-0.88388 2.4749-12.992 7.9546-22.008 8.043-4.6154 0.38461-10.345-5.5451-10.873-8.1309l0.79101 3.3008c3.998 5.7917 8.2174 6.4076 10.17 6.4219 10.168 0.07422 21.695-5.7878 22.756-8.4394s2.1699-10.387 2.1699-10.387 0.26525-1.9446-0.70703-4.5078zm0.91407 6.0547c-0.2143 2.3713-1.2274 7.8513-2.1113 10.326s-13.218 8.4803-22.229 8.793c-4.6286 0.16062-9.8113-4.6486-10.691-6.9609l0.70507 2.6289c4.1542 6.0104 8.1237 5.9076 10.076 5.9219 10.168 0.07422 21.539-6.7546 22.6-9.4062s1.9199-8.2637 1.9199-8.2637-0.04725-0.44455-0.26953-3.0391z" fill="#f9f9f9"/><g stroke-width=".66813"><path d="m138.4 298.11c-6.2375 0.52289-12.193 3.9724-16.088 8.8223-2.8137 4.0131-1.7343 9.4688-0.0703 13.727 3.1272 6.9734 7.7548 13.724 14.432 17.689 3.335 1.6057 6.8798-0.69782 10.02-1.7793 3.0991-1.4975 7.2498-3.3976 7.5-7.3144-0.11551-1.2205-1.0821-2.4172-1.7559-3.1016 0.53912-2.3866 0.82112-5.1158 0.43945-7.4512-4e-3 -0.0136-9e-3 -0.0276-0.0137-0.041 1.5438 0.29384 3.1136-1.0039 4.2773-1.8848 1.483-3.4266 0.0941-7.4682-1.5664-10.607-2.0292-3.8081-5.7182-6.7319-10.188-6.6406-0.82534-0.0828-1.2879 0.3576-1.4336 0.94922-0.20024-0.25207-0.40307-0.49819-0.60547-0.74023-1.2877-1.3092-3.1714-1.6997-4.9473-1.627z" fill="#fff0e1"/><path d="m191 381.99c-0.83397 0.0162-1.4605 0.94453-1.0527 1.7246 0.46523 1.1563 0.50949 2.3864 1.3867 3.3262 0.77211 0.51906 1.5981-0.19883 2.502-0.25781 4.0424-0.43292 8.2182-0.6369 12.277-0.94336 1.0753-0.0135 1.3449-1.2315 0.29102-1.5566-4.8712-1.1605-9.8442-1.9497-14.844-2.2812-0.13063-3e-3 -0.25996-5e-3 -0.39062-2e-3 -0.0572-7e-3 -0.11433-0.0108-0.16993-0.01z" fill="#6f6f91"/><path d="m252.24 281.18c-0.06 2e-3 -0.1206 9e-3 -0.18359 0.0195-8.5399 0.99847-17.047 2.5202-25.408 4.5254-2.0576 0.58144-0.47054 2.6908 0.3711 3.6387 7.0578 8.7353 13.403 18.157 18.25 28.275 1.3824 1.629 3.1969 2.533 4.1934 0.44726 1.595-2.7707 1.0198-6.2095 1.5-9.2148 0.26109-8.7436 0.84211-17.409 2.5195-25.982 0.20743-0.86408-0.34227-1.7414-1.2422-1.709z" fill="#f9f9f9"/></g><path d="m173.6 102.78c-1.082 1.325-2.2914 2.9245-3.4009 4.3564-8.445 13.707-13.566 29.25-16.599 44.994-2.1204 10.821-2.6458 22.122-2.4789 33.127-3.1638-5.7797-5.6316-12.173-7.727-18.412-1.0795-2.0428-2.0116-0.20346-2.1053 1.8443-1.2453 15.841-0.72896 32.034 3.8294 47.354 3.393 11.799 9.5949 22.691 17.633 31.94-1.0685-0.23655-3.1593-1.0064-3.3272 0.72803 0.7402 1.8881 2.705 3.0356 4.0513 4.4898 15.33 13.841 35.606 22.058 56.216 22.972 1.2009-0.1299 2.418-0.66945 3.5698-0.0859 10.65 0.5751 21.295-1.3313 31.544-4.1048 1.4785-0.35251 3.8938-0.1061 4.3411-1.7822 11.085-4.2913 13.204-5.162 19.011-8.8066 4.6386-2.1868 8.2402-5.8462 11.355-8.3924 2.3612-1.6186 5.2738-4.481 7.1142-6.7465 7.3669-8.4516 11.454-16.245 16.53-24.763 0.60604-1.0991 3.1389-3.0895 2.2177-4.5133-1.3927-0.98862-3.04 2.0129-4.0998 2.6579-3.5248 2.8432-8.2331 5.3343-12.625 6.3402 6.4576-9.8345 9.2791-22.183 10.4-33.717 0.91814-10.912 0.16502-21.766-1.3588-32.606-0.83456-3.0043-3.3532-4.7775-5.3575-6.9856-4.721-4.4913-10.081-7.8142-16.198-10.491-1.4415-0.17365-1.43 1.3586-0.49535 2.0313 1.3898 1.8178 3.778 4.0234 5.2728 5.7556-18.01-3.3641-36.834-12.485-51.345-24.118-2.6159-2.2034-6.4278-6.0511-8.89-8.8806-0.53845 0.3491-0.10464 1.0935 0.8121 3.1119 6.1598 13.266 13.295 27.257 19.805 40.354-11.557-0.14532-22.145-5.0841-31.467-11.254-1.1455-0.84956-1.8066-0.47867-0.85687 0.51989 3.1122 5.1888 8.5134 12.443 12.456 17.265-13.415-5.5741-24.675-13.506-33.515-23.163-10.517-11.352-18.36-25.146-23.229-39.771-0.22393-0.64747-0.26402-1.4249-1.0827-1.2487z" fill="#fff0e1" stroke-width=".47244"/><path d="m280.85 160.86c-1.455-0.0641-2.8656-0.0656-4.1914 0.0117-10.607 0.61872-26.959 3.1808-33.941 6.8047l-0.44336 2.3867s19.712-6.2749 34.738-6.3633c15.026-0.0884 27.135 3.8887 27.135 3.8887l-0.79492-2.8281s-12.317-3.4521-22.502-3.9004zm-76.582 13.623c-20.81-0.0708-43.72 5.6716-60.547 16.617-0.26516 0.79549 0.17773 2.209 0.17773 2.209s28.106-15.29 61.252-17.234c-0.26516-0.53033-0.8828-1.5918-0.88282-1.5918zm59.891 9.2617c-0.65953-0.0247-1.2666 0.15944-4.1406 1.2774-3.832 1.4905-10.166 5.968-6.9316 8.6504 2.5082 2.0802 8.3793-1.2571 10.35-3.125 4.6935-4.4497 3.6301-6.5467 1.4863-6.7344-0.31747-0.0278-0.54383-0.0601-0.76367-0.0684zm-31.518 1.2559s3.623 25.368 8.4844 29.699c4.5962 3.9775 14.318 8.6615 37.211 4.9492 22.893-3.7123 26.252-5.834 26.252-5.834l0.97265-4.0645s-8.9278 3.9764-12.729 5.0371c-3.8007 1.0607-11.401 3.0942-15.379 3.3594-3.9775 0.26517-19.445 2.9165-29.963-1.3262-3.2704-1.149-5.2153-3.182-5.834-4.8613s-3.0062-6.9827-4.332-13.523c-1.3258-6.5407-3.0039-13.082-3.0039-13.082zm-39.367 12.084c-2.3312-0.0823-4.1636 0.58093-4.0312 2.6777 0.20525 3.252 6.6585 5.2369 9.3692 5.3906 5.0083 0.28401 3.8008-0.35352 3.8008-0.35352 2.0605-0.46855 3.7723-1.0892 2.1211-3.1816-0.78968-1.0007-0.53183-0.97247-4.2441-2.7402-1.8562-0.88389-4.6844-1.7107-7.0156-1.793zm23.455 17.469-2e-3 2e-3c-0.19608 0.081-0.70313 2.5312-0.70313 2.5312s-1.4134 5.2591-21.832 13.346c-17.854 7.0711-34.108 6.9311-35.355 6.7188-2.0771-0.35355-6.4531-4.4199-6.4531-4.4199l2.3867 4.9492s0.97243 2.9176 7.6016 2.2988c6.6291-0.61872 33.322-1.327 51.441-16.441 1.591-1.591 2.5644-2.9151 2.918-7.2461 0.095-1.1636 0.0828-1.6493 0.0215-1.7305l-4e-3 -4e-3c-9.6e-4 -6.4e-4 -5e-3 -3e-3 -6e-3 -4e-3h-6e-3c-1e-3 -1e-5 -4e-3 7e-5 -6e-3 0z" fill="#ddc0a2"/><path d="m173.94 101.94-1.5 2.375s-9.6875 15.5-12.812 26.438-5.5625 17.25-7.3125 31.438-0.875 17-0.875 17l1.2969-0.4668s0.17799-46.314 20.596-71.682c0 7.955 16.528 50.027 60.545 62.312 0.7071 0.0884-1.6797-2.2969-1.6797-2.2969l-0.32031-0.11719-2.9707-3.0176c0.76953 0.93085 1.5545 1.8206 2.3457 2.6426-0.21743-0.05722-0.33396-0.06504-0.37305-0.04492-0.00114 7.4e-4 -0.00293 0.00115-0.0039 0.00195l-0.00196 0.00195-0.00195 0.00196-0.00195 0.00195v0.00195 0.00196l-0.00196 0.00195v0.00195 0.00196 0.00195c-5.7e-4 0.1517 1.1348 0.77539 1.1348 0.77539l-4.375-1.875s-38.188-14.625-53.438-62.438l-0.25-1.0625zm55.875 13.719 3.6562 7.7812s7.9062 11.688 27.031 19.438 33 9.75 33 9.75l-2.9062-2.5s-20.937-4.6386-33.719-12.375c-7.2442-4.3847-20.938-12.844-27.062-22.094zm54.354 26.342c-0.02733 2.9e-4 -0.04102 0.00195-0.04102 0.00195l2.6875 2.4375s5.5 2 17.125 12.312l2.5625 0.6875s-1.3125-3.0625-10.125-9.375c-8.2617-5.918-11.799-6.0688-12.209-6.0644zm-66.57 5.1953c0.4579 0.60766 1.3565 2.1062 2.5703 4.0781 1.0063 1.0246 4.1565 3.736 11.428 6.4473 9.2188 3.4375 11.639 3.4473 11.639 3.4473l2.8926-1.166s-9.5277-1.8094-14.375-3.8125c-4.1242-1.7043-11.867-6.1161-14.154-8.9941zm2.5703 4.0781c-0.26951-0.2744-0.38477-0.42773-0.38477-0.42773l3.6875 5.8125 4.4688 6.2812 0.9668 0.98047c-3.4397-4.1609-6.5855-9.149-8.7383-12.646z" fill="#ddc0a2"/><path d="m255.35 271.61c-9.315 2.5107-18.829 4.0794-28.435 4.3967-1.3639 0.16306-4.1989-0.23553-3.7913 1.9632 0.3919 2.6706 0.0933 5.6221 1.2243 8.102 1.5478 1.2812 3.6302-0.44606 5.3863-0.39832 7.7944-1.5816 15.682-2.7432 23.504-4.1095 1.6565-0.79704 1.1172-3.1214 1.9777-4.5133 0.25768-1.6964 1.844-3.5496 0.96951-5.2094-0.28095-0.035-0.54737-0.27288-0.83555-0.23133z" fill="#fff0e1" stroke-width=".66813"/><path d="m223.49 282.49s4.1542 1.2816 15.998 0.0442c6.0933-0.63661 13.135-2.6023 15.165-4.7192 1.4421-2.9608 2.6453-6.4178 2.6453-6.4178s-12.286 3.4472-17.589 3.8891-16.926 0.92808-16.926 0.92808z" fill="#ddc0a2"/><path d="m278.66 153.62c-9.451 0.163-18.937 1.7669-27.844 4.898-0.83434 0.86623 1.5546 2.5682-0.61233 2.0208-2.7444 6e-3 -5.6439-0.60629-7.9905 1.2137-2.6424 1.4101-6.5948 2.409-6.8333 6.0262-0.51552 3.1654-0.83475 6.3596-1.2989 9.5328-4.5935-1.5995-9.7944-1.5158-14.084 0.92807-1.8488 0.91894-3.568 2.0698-5.3827 3.0508-1.6278-4.6666-3.0562-9.9266-7.0255-13.185-4.4831-1.825-9.5373-0.85302-14.226-0.57878-14.245 1.6246-28.408 5.1789-41.278 11.574-0.91937 1.9552-0.16756 4.8444-0.32041 6.9412 0.74783 0.89015 3.4463-1.564 5.0482-1.8147 14.779-6.2925 30.758-10.336 46.861-9.6772 1.8483-0.39822 1.9927 2.2321 2.7787 3.3816 3.7442 9.9197 5.7658 20.641 4.8905 31.208-0.42438 3.0796-0.72749 6.9181-3.979 8.3914-14.751 8.6131-31.557 13.969-48.699 14.514-8.23-9.0108-12.789-20.746-14.139-32.798-0.36222-2.7407-0.62112-5.4594-0.5545-8.2063 2.1584-1.6471 5.0333-2.5196 7.1042-4.1978 0.27904-1.7678-1.4084-3.876-2.3181-5.3061-1.3616-0.96969-2.8033 1.4664-4.0008 1.9631-1.4947 1.2876-4.1464 2.115-3.3972 4.5894 0.40953 14.776 3.4884 29.697 10.373 42.86 2.0478 3.7809 6.1402 6.8454 10.623 6.114 13.155-0.46855 26.016-4.2509 38.071-9.3636 5.9278-2.8273 12.664-5.7439 15.901-11.822 1.3673-5.832 0.60699-11.936 0.36733-17.862-0.2384-3.3197-0.58269-6.6312-1.0047-9.9324 3.4641-2.7355 7.8155-4.003 12.184-3.7669 2.0952 0.24726 5.0056-0.43967 6.4786 1.4184 2.063 9.076 3.1684 18.725 7.9936 26.875 3.4219 4.6984 9.7572 5.5402 15.125 6.1708 15.519 1.0989 31.437-1.4893 45.586-8.0394 2.0525-0.58263 3.3384-1.9605 3.3377-4.1543 3.3915-14.658 3.057-29.899 1.6188-44.781-0.22376-1.8953-0.52774-4.4639-2.9094-4.7058-8.5897-2.337-17.533-3.6101-26.443-3.4803zm-1.1263 7.5938c8.6918 0.0365 17.556 0.80601 25.794 3.713 2.5114 8.0704 2.9367 16.857 1.8534 25.046-1.0058 4.9659-2.0902 9.9978-3.8953 14.709-12.857 7.3674-28.242 8.8869-42.763 7.4163-3.291-0.28592-6.563-0.79997-9.8318-1.3141-6.7727-12.884-8.2972-28.062-6.1064-42.352 0.82243-1.8943 3.4531-1.8752 5.0837-2.7359 9.5925-3.1643 19.797-4.3913 29.866-4.4823z" fill="#1a1a1a" stroke-width=".66813"/><path d="m252.22 504.29c-5.8728-0.15988-11.438 2.9883-15.254 7.291-2.3001 2.3406-1.5664 5.9218-1.8848 8.8809-0.14286 6.5977-0.3682 13.252-0.23633 19.818 0.9317 0.96183 1.9608-0.89599 2.8398-1.2754 3.4921-2.5754 8.5376-2.5387 12.113-0.17774 3.4528 2.4936 4.4531 7.0251 4.416 11.057 0.15578 1.671-0.32302 3.6639 1.3262 4.7383 1.1432 1.1375 2.5858 2.1789 4.1875 2.4219 4.1311-3.3696 6.6784-8.1742 8.5488-13.076 2.9861-6.2887 5.6564-12.72 7.7832-19.316 0.53887-1.3832 1.308-2.8846 0.13868-4.1836-3.5602-7.7048-10.382-14.4-18.953-15.932-1.6638-0.2273-3.3483-0.27159-5.0254-0.2461z" fill="#fff" stroke-width=".47244"/><path d="m187.01 474.84-4e-3 4e-3c-0.09 0.0586-0.20798 0.84288-0.41406 0.88282-1.3738 1.704-1.954 4.0174-3.0156 5.957-3.2228 7.3421-6.8927 14.792-7.5254 22.904-0.039 6.829 1.5078 13.57 3.2383 20.141 0.12785 1.4058 1.489 1.9823 2.7461 1.7793 2.0514 0.13462 4.8407-0.26119 5.4062-2.6406 1.7728-3.7736 6.6866-4.7851 10.379-3.9922 2.7725 0.54045 5.0623 2.332 6.8105 4.4453 1.4068 0.49617 1.4919-1.7802 2.1992-2.6309 3.3499-6.4957 7.6768-12.41 11.494-18.623 3.5544-4.1184-1.1619 0.16161-2.5547 0.16992-4.7683 1.7838-10.037 0.27977-14.369-2.0527-4.2846-2.4516-7.6959-6.0278-9.9531-10.371-2.3072-4.43-4.0522-10.878-4.4004-15.934-6e-3 -0.0159-0.0133-0.0289-0.0195-0.0352-7.9e-4 -6.4e-4 -5e-3 -1e-3 -6e-3 -2e-3l-2e-3 -2e-3h-4e-3c-8e-4 3e-5 -5e-3 -1.6e-4 -6e-3 0z" fill="#dbe2e3" stroke-width=".47244"/><path d="m218.05 235.64s9.9879 1.0607 19.445-1.0607 13.965-4.5962 13.965-4.5962-7.513-1.7678-16.175-0.53033-17.236 6.1872-17.236 6.1872z" fill="#fff"/><path d="m218.05 235.2s6.0104 1.9446 18.473-0.44194c12.463-2.3865 14.672-4.8614 14.672-4.8614s6.7175 2.0329 9.6343 6.364c2.9168 4.331 2.3865 10.341 2.1213 11.932-0.26516 1.591-1.149 6.0104-5.922 9.8995-4.773 3.8891-8.9272 4.773-14.584 5.922-5.6569 1.149-16.263 2.2097-22.893-1.9445-6.6291-4.1542-8.804-14.182-6.364-20.594 1.9004-4.994 4.8614-6.2756 4.8614-6.2756z" fill="#ff8080"/><path d="m212.75 251.91s1.9446-13.789 22.716-15.556 25.191 0.88388 27.577 7.4246c-0.0884-4.1542-2.1213-12.021-12.021-13.435 0 0-6.8059 3.2704-14.496 4.5962-7.6898 1.3258-15.114 1.149-18.12 0.35355-2.1213 1.7678-8.3085 7.4246-5.6569 16.617z" fill="#d35f5f"/><g fill="#ddc0a2"><path d="m300.5 443.12-19.875 7.75-15.75 3.875h-4l-1-0.875-16.25 6.625-2.3125 16.438c2.1875-12.938 16.312-13.562 18.188-14.188s0.8199-0.67841 2.75 0.75c1.8501 1.3692 20.874-8.9642 25.619 10.434zm-78.734 19.059s6e-3 0.0454 0.0176 0.12891c9e-3 -0.0728-0.0107-0.11699-0.0156-0.12695zm0.0176 0.12891c-0.0272 0.22169-0.31416 0.70692-2.0488 1.2852-2.3865 0.7955-17.943 5.0382-31.201 4.1543l0.35352 3.1816-1.6797 4.0664s0.0641 1.5536 0.30664 2.9512c1.5746 15.414 11.684 23.391 19.404 25.42 7.734 2.0329 12.373-2.0325 12.373-2.0325l8.7881-13.352s-10.176 8.4905-18.352 7.5624c-4.7688-0.54132-11.119-5.4418-15.584-11.189 0.0638 0.0513 0.12706 0.10293 0.1914 0.15624-2.0559-3.2472-2.0843-3.8063-2.084-3.8379 0 0 1.1588-5.3785 23.256-4.4062 1.2027 0.0529 1.0508 1.2157 2.0996 1.4238 1.0351 0.20541 3.2428-0.31246 4.1562-0.18554 7.3576 1.0223 8.8144 3.1816 8.8144 3.1816l1.6191-17.094s-8.3079 2.0328-9.8105 0.70703c-0.41515-0.89946-0.55843-1.6909-0.60157-1.9922zm25.904 30.438s-0.9375 2.5625-0.1875 4.1875 1.8418 2.3535 1.8418 2.3535c-0.71253-2.056-1.1055-4.3213-1.6543-6.541zm18.162 2.8438-2.1426 2.0996-3.5137 2.6289c4.7509-1.2816 5.6562-4.7285 5.6562-4.7285z"/><path d="m157.24 313.03s-0.97223 1.1039-2.6074 1.7227c-1.6352 0.61871-3.9336-0.2207-3.9336-0.2207l0.44336 2.5195s0.70603 0.3972 0.88281 0.4414c0.17677 0.0442 0.22189 0.97289 0.53125 1.1055s4.8174-1.6354 4.9941-2.3867-0.31054-3.1816-0.31054-3.1816zm-4.7422 8.7227c-1.3566 3.7938-2.4754 3.0268-8.6875 4.5879-10.393 2.6117-18.021-0.21875-18.021-0.21875 4.3325 8.5132 10.74 11.943 11.428 12.381s3.0938-0.09375 6.1875-1.0625 8.5312-4 9.4375-5.0625 1.1562-3.25 0.65625-4.4062-1.75-1.8438-1.75-1.8438l0.75-4.375z"/><path d="m383.38 145.94-1.125 0.125-2.4375 8.9375-0.4375 0.5 1.3125 1.375s1.9e-4 -2e-3 2e-3 -6e-3l1.0606 1.9434s6.4375 8.125 7.5625 10.25-6.414-12.349-11.629-11.377-10.775 8.4213-8.5742 9.6328c2.6633 1.466 8.3408 3.0509 11.98 5.709 4.6713 3.4115 8.5253 8.2571 9.2324 10.113 0.70711 1.8562 0.97265 3.0059 0.97265 3.0059l6.0098-3.2715 4.2441-4.8613-3.0059 0.26563-0.1582 8e-3c0.46328-0.0914 0.94869-0.16211 1.4277-0.16211 1.5 0 3.8125-1.5 4.375-1.8125s1.75-1.75 2-2.5625 0.25-3.5625 0.25-3.5625l-0.25-4.625c-2.1673 5.1477-9.7342 6.9813-12.5 5.875-1.875-0.75-0.8125-3.125-0.8125-3.125s-1.5625 0.125-3.0625-1.4375-2.1875-5.1875-2.1875-5.1875-2.1875 0.0625-3.625-0.625-2.375-5.75-2.375-5.75l-0.26758 0.14648c1.151-2.4486 3.3765-7.2613 3.3301-7.7715-0.0625-0.6875-1.3125-1.75-1.3125-1.75z"/></g></g><g><path d="m230.79 35.121c-5.4106 0.02003-10.858 0.12433-16.318 0.83398-35.989 4.6772-64.078 24.429-82.768 50.234-32.683 37.999-78.542 142.63-17.518 199.5-3.283-11.391-3.1501-25.361 6.7129-39.602-0.98943 3.0551-8.0387 26.461 5.1426 35.445 2.0501-7.9639 3.1894-13.043 3.1894-13.043s-2.4798 12.096 6.7852 21.361c2.7598-8.989 8.1816-20.762 8.1816-20.762s1.0209 19.609 18.549 26.598c-1.1828-6.6234 4.5638-15.927 11.35-21.053 2.449 5.283 3.4777 14.035 1.7383 21.053 7.4908 0.1577 31.027-1.144 45.062-19.674-0.26841 0.10337-0.84764 0.1063-1.0645 0.13282-15.297 18.922-42.113 18.24-42.113 18.24s1.2547-12.71-3.373-21.018c-9.234 6.0081-12.926 15.876-12.814 20.393-6.4677-3.5126-14.397-7.9307-16.842-28.195-6.5446 14.114-9.1348 22.289-9.1348 22.289-0.83633-0.94784-8.4618-8.5904-4.4297-27.611-1.2222 2.2867-5.6211 19.152-5.6211 19.152-9.8975-6.987-6.0575-30.347-2.709-35.916 0.66122-0.86541 1.3581-1.734 2.0898-2.6094-0.39792 0.41916-18.977 18.214-12.818 40.471-49.319-49.314-19.299-135.07 9.0254-178-29.779 56.909-19.32 130.96 44.02 146.14-10.131-11.628-27.447-33.227-22.725-83.1 4.3247 14.048 9.7129 21.959 9.7129 21.959-2.0752-36.664 10.041-69.398 21.824-85.188 8.8107 28.193 28.484 54.301 58.998 64.639 0 0-6.1496-5.3616-13.877-18.924 14.982 12.301 32.959 12.143 32.959 12.143s-11.581-22.732-21.314-43.623c4.1746 5.0813 23.665 26.432 61.58 33.486-2.194-2.3738-4.0016-4.7939-7.1934-8.6074 10.295 4.0374 16.622 9.8323 22.17 16.445 6.3954 50.235-10.041 68.041-10.041 68.041 10.428-1.3602 17.564-9.5215 17.564-9.5215-2.7598 8.2793-12.695 20.266-12.695 20.266 12.301-3.3117 17.426-13.012 17.426-13.012-5.5195 15.849-9.1543 23.033-9.1543 23.033 26.848-13.804 35.88-38.285 38.443-56.791-0.24063 5.8614-1.0391 18.746-1.6133 31.314 36.739-89.89-35.256-187.22-116.39-186.92zm0.45117 1.2109c81.031 1.1524 147.05 96.51 117.36 179.17 0 0 1.5294-19.948 0.88281-34.693-0.16443-0.9978 0.4906-9.8433-0.64649-14.746 4.1431 60.849-36.129 78.836-36.129 78.836 4.1642-9.0054 9.4512-25.719 9.4512-25.719-8.7536 14.385-17.283 16.225-17.283 16.225 11.876-15.11 11.318-20.797 11.318-20.797-9.5342 10.148-17.174 11.033-17.174 11.033 14.788-21.563 10.149-58.749 9.0879-65.889 0.17223 0.21032 0.3444 0.42104 0.51562 0.63281-0.63081-55.195-42.107-84.684-42.107-84.684 41.039 36.667 40.848 76.773 41.402 82.848-6.075-7.3361-11.97-12.878-23.525-17.1-6.4196-7.7009-14.422-17.256-14.422-17.256s13.648 19.235 20.24 25.432c-33.396-6.4851-57.803-28.572-60.912-35.24-0.06531-0.1417-0.13218-0.28632-0.19727-0.42774-4.8418-10.519-9.0079-20.205-10.717-25.793 1.5978 5.8533 5.574 15.571 10.227 26.006 9.1403 20.5 20.888 43.774 22.322 45.984 0 0-18.367 0.2337-34.488-14.182 0 0 8.1418 14.33 14.191 20.398-7.943-2.9229-51.009-21.22-61.422-85.781 0.77896 7.217 2.2625 14.534 4.4512 21.725-11.246 13.991-24.549 48.486-22.566 82.799-11.932-23.306-13.939-49.734-13.939-49.734 0.43604 10.756 2.1745 20.125 4.3203 27.871 7.4e-4 0.00268 0.00121 0.00514 0.00195 0.00782-0.5138 3.1058-8.4337 54.148 20.691 84.135-94.716-29.116-62.4-193.46 52.688-210 5.5116-0.79222 10.981-1.1354 16.383-1.0586z" stroke-width="1.8898"/><path d="m303.98 235.73c0-1e-5 -17.013 31.28-63.035 38.426-53.507 8.3077-81.668-26.412-81.668-26.412l-3.8632-1.2216c7.3971 7.5132 35.814 37.078 85.997 28.954 48.321-7.8225 65.133-39.744 65.133-39.744z" stroke-width="1.8898"/><g stroke-width="1.8898"><path d="m156.52 220.47s9.738-11.433 21.211-15.06c11.473-3.6271 25.705-0.19712 25.705-0.19712s-4.1002 0.82793-3.3511 1.6559 2.129 1.853 2.129 1.853-14.587-1.4982-22.906 2.3655c-8.3187 3.8637-20.777 13.05-20.777 13.05s0.1577-2.4049-2.0107-3.6666z"/><path d="m251.35 196.82s9.9803-6.9137 23.194-7.081c13.214-0.16727 22.86 3.7356 22.86 3.7356s-2.6205 0.55755-2.1745 3.0666c-4.2932-1.3381-27.488-4.7392-42.988 4.5162 0.55755-1.3381 2.7878-2.732-0.89209-4.2374z"/><path d="m280.73 190.96s5.018-1.3939 5.8544-4.1817c-0.55756 3.8472-2.1187 5.1853-2.1187 5.1853"/><path d="m291.88 192.69s4.2932-0.22302 6.5792-3.2338c-0.89209 2.286-4.8507 4.4604-4.8507 4.4604z"/><path d="m164.64 206.55s3.154 3.8637 8.6736 2.6021c-5.283 3.154-8.5553 1.3405-8.6736-2.6021z"/><path d="m155.61 213.17s3.0752 3.6271 7.6485 1.577c-2.8386 3.2329-6.2489 0.43367-7.6485-1.577z"/><path d="m144.91 170.22c13.716-19.459 29.439-19.682 44.995-20.63-14.998-0.16727-33.286-0.44605-44.995 20.63z"/><path d="m244.91 141.46c14.824-9.9352 43.131-3.3906 49.755 3.0752-7.4908-7.4119-33.557-15.557-49.755-3.0752z"/><path d="m190.19 197.36s6.6234-0.70966 9.3044 0c2.6809 0.70965 5.283 4.5733 5.283 4.5733s-3.2329-4.5733-14.587-4.5733z"/><path d="m251.77 192c0.0789-0.39426 1.9713-4.1002 3.706-5.4407 1.7347-1.3405 8.5158-2.8386 8.5158-2.8386s-9.2255 2.4444-12.222 8.2793z"/></g><path d="m277.64 160.74c-1.9423 0.01452-3.916 0.11523-5.8926 0.32617-15.812 1.6875-29.25 6.5-29.25 6.5s-1.8125 15.312 0 23.125 2.25 14.875 6.3125 19.938c4.375 1.5 16.375 2.9375 29.75 1.5s22.938-7.8125 22.938-7.8125 5.0625-13.25 4.625-22.438-2.875-17.125-2.875-17.125-12.012-4.1154-25.607-4.0137zm-81.156 13.654-8.2188 0.70704-9.457 1.7676-10.342 2.7402-10.961 4.1543-5.9219 2.2969v1.2383l-0.61914-0.61914-1.9434 1.1504-5.3047 3.3574 0.39844 4.4648 1.1055 8.4394 2.4297 9.1934 2.5664 6.6562 4 6.5938 4.7812 5.5684 5.75-0.47461 9.5625-1.4688 9.3125-2.0625 11-3.9688 10.281-5.0312 4.6562-2.7188 0.84375-1.7812 1.0625-5.25 0.3125-5.3438-0.78125-9.2812-1.8125-8.0938-2.2695-7.7266-2.3867-4.4199-8.0449-0.0879z" fill="#dbe2e3" fill-opacity=".33265"/><path d="m278.58 161.22-9.2676 0.15039-9.2871 51 3.5098 0.2207 5.7539-0.01172 15.4-50.861-6.1094-0.49805zm15.336 1.3574-19.734 49.852 4.2774-0.54297 17.986-48.793-2.5293-0.51563zm-95.188 11.98-20 55.125 4.125-1.125 18.625-53.875-2.75-0.125zm-10.5 0.375-7.25 1.375-8.5 1.875-9.375 53.625 3.875-0.25 6-0.875 15.25-55.75z" fill="#f9f9f9" fill-opacity=".33265"/><g stroke-width="1.8898"><path d="m276.92 153.2c-9.1294 0.24794-17.865 1.9044-26.854 4.8203l0.47657 0.8457c18.198-5.7287 34.464-6.8962 56.354-0.95508l-0.76367-1.0742c-10.561-2.723-20.084-3.8847-29.213-3.6367zm-31.777 6.791s-7.5309 2.8781-9.2656 4.4551-2.2773 12.174-2.2773 12.174c-7.1061-1.9033-11.084-1.4627-18.42 3.5957-1.8127-7.0172-4.9674-11.554-7.6894-13.246s-31.854-0.47386-55.982 11.945l-0.0391 0.86719c24.628-12.467 51.89-13.171 55.234-11.709 4.869 2.129 7.6094 13.996 7.6094 13.996 8.0921-5.5723 12.145-6.7952 20.186-4.1797 0 0 0.85358-11.567 2.2852-12.854 1.8267-1.6414 10.094-4.8086 10.094-4.8086zm29.479 0.75586c-10.871 0.30322-22.264 2.3259-32.318 6.5762 0 0-4.9645 24.265 6.1934 43.783 29.449 5.6167 46.599-2.0425 53.482-6.4121 2.6809-10.724 7.19-19.944 1.8281-40.209-7.9664-2.6253-18.315-4.0415-29.186-3.7383zm6.2305 0.74805c7.8611 0.27864 15.518 1.4947 22.303 3.6738 4.508 18.024 2.1853 26.594-2.0703 38.916-5.7036 4.348-24.663 12.064-52.24 6.3457-10.091-18.926-5.9043-42.637-5.9043-42.637 11.141-4.624 24.81-6.7632 37.912-6.2988zm-129.03 24.551 0.10937 0.60351c21.914-9.4737 36.13-12.351 52.367-11.756 6.557 10.939 8.8122 32.415 5.3164 40.807-7.885 5.3618-26.505 14.843-50.539 16.062-5.6772-6.1503-13.595-17.491-14.975-40.357 0.23655-0.1577 2.9562-2.2902 7.293-4.498l-0.19336-0.69922s-5.5461 2.8979-7.7539 4.8691c0.3568 12.207 3.1207 29.057 15.232 41.371 22.781-0.38025 44.398-11.039 51.406-16.336 5.2352-11.892-1.2619-37.322-5.2598-41.941-25.827-1.8755-51.53 11.231-53.004 11.875zm-3.5059-5.4746c-3.9674 2.3889-5.9421 3.8913-7.6289 5.6562l-0.0449 1.0586c2.0181-1.8842 4.3544-3.7107 8.0254-5.9551zm80.189 3.1582c-4.389-0.11827-9.7644 0.96567-13.322 4.4336 0 0 3.0726 19.059 0.70703 27.969-6.341 12.453-49.764 23.299-57.902 20.127-2.6198-1.0211-4.736-3.0447-7.0703-6.3281l1.1035 2.1289s3.6279 4.574 6.0723 5.4414c7.0648 2.5068 50.287-6.8723 58.734-20.756 0 0 2.527-7.7263-0.52344-28.141 4.7576-4.8468 13.678-5.034 17.564-2.9082 0 0 4.2774 26.608 10.119 29.986 11.689 6.7608 42.726 4.6266 61.16-5.4648l0.23828-1.0254c-19.163 10.393-50.918 12.411-60.715 5.5195-6.2756-4.4146-9.9356-29.727-9.9356-29.727-1.3178-0.68104-3.5971-1.1849-6.2305-1.2559z"/><path d="m228.71 264.84s-13.158 0.33453-16.281-12.712c-4.1076-17.164 12.043-21.522 22.525-22.971s28.306-1.3379 28.547 14.608c0.22302 14.763-12.935 18.065-12.935 18.065s12.995-4.4931 12.326-18.098-15.783-15.467-27.492-13.795c-11.709 1.6727-26.068 7.2159-22.329 22.172 3.1223 12.489 15.639 12.731 15.639 12.731z"/><path d="m218.1 235.84 1.1828-0.94621s6.9388 1.4982 16.322-0.1577c9.3832-1.6559 15.297-4.8099 15.297-4.8099l1.4982 0.39425s-9.5409 4.0214-17.111 5.0464c-7.5696 1.025-15.297 0.9462-17.189 0.4731z"/></g><g><path d="m361.04 166.75c-1.8038-0.16235-3.9258 0.35393-4.5342 2.292-2.8439 6.237-5.1048 12.743-7.0552 19.306-0.56417 2.9384 2.4521 4.7449 4.139 6.6232 7.9917 7.8293 16.334 15.634 26.357 20.798 0.87046 0.66504 2.217 0.61134 2.6191-0.5448 2.6514-6.3 6.2227-12.223 10.651-17.439 0.3982-2.4087 0.0298-4.9696-0.26123-7.4131-2.1214-11.367-11.966-20.308-23.059-22.778-2.8982-0.68953-5.8831-0.91093-8.8562-0.844z" fill="#273755" stroke-width=".47244"/><path d="m356.38 169.44-1.0606 2.2656c32.193 4.4532 34.758 29.592 35.248 29.33l0.99219-1.7207c-0.23239-14.635-14.539-28.558-35.18-29.875zm-1.543 4.0117-1.1484 2.6035c0.29139 0.1457 22.806 4.8557 34.004 29.061 0.61872-0.97227 1.5293-2.2109 1.5293-2.2109-0.14863 0.13005-5.2938-22.613-34.385-29.453zm-1.7207 5.1309-1.0606 2.6504c17.246 6.3178 32.968 27.254 33.053 27.592l1.748-2.8476c-15.425-21.408-28.962-25.928-33.74-27.395z" fill="#f9f9f9"/><path d="m221.54 275.63c-5.607 1.1207-10.895 3.4968-15.865 6.2769-5.1049 2.9706-10.081 6.4372-13.779 11.106-0.7197 1.0144-1.5453 2.0578-1.8338 3.2731 1.1164 1.5003 2.9116 2.302 4.449 3.3033 8.2776 4.7605 16.969 8.7828 25.834 12.318 7.9854 3.1028 16.169 5.8535 24.633 7.2975 0.53529 0.12464 1.5176 0.0384 1.1865-0.74267-1.1342-0.91724-1.3823-2.4804-2.0987-3.6913-4.4223-8.8944-10.116-17.097-16.21-24.918-1.245-1.6897-2.7447-3.1962-3.897-4.9485-0.22036-2.8542-0.23433-5.8433-1.3857-8.5173-0.20086-0.39053-0.54479-0.80417-1.033-0.75659z" fill="#273755" stroke-width=".23622"/><path d="m199.76 285.32-2.6523 2.209s42.174 20.992 44.04 21.854c0.86178 0.39775-1.3487-2.3204-1.3487-2.3204zm-4.4199 3.8887-2.4746 2.1211 51 23.158-1.2363-2.4746z" fill="#f9f9f9"/><path d="m332.38 310.25c-0.0329-9.5e-4 -0.0672-5.3e-4 -0.10157 2e-3 -1.1469 0.18013-1.4349 1.5505-2.0156 2.3691-2.6975 5.0577-5.3341 10.153-7.7305 15.361-1.163 3.1102-1.6025 6.4339-2.3711 9.6524-0.80102 3.9218-1.7027 7.8307-2.3457 11.779-0.022 0.93828 1.1629 1.3825 1.8555 0.82032 8.0278-4.2798 16.058-8.5807 23.803-13.359 1.3063-0.92691 2.8785-1.6471 3.8047-2.998 0.39443-1.2008-0.5346-2.3296-1.0156-3.3691-3.8995-6.7195-8.3808-13.079-12.801-19.461-0.25104-0.39346-0.58809-0.78258-1.082-0.79688z" fill="#1a1a1a" stroke-width=".23622"/><path d="m287.29 251.29c-0.0505-9.2e-4 -0.0999 2e-3 -0.14844 8e-3 -6.4924 0.3803-13.097 1.9619-18.48 5.7559-6.4057 4.3959-10.566 11.343-13.068 18.57-3.4478 9.978-4.4297 20.594-4.9043 31.078-0.16365 3.0515-0.0556 6.1614-0.18555 9.1738-0.11924 0.4356-1.1556 1.2875-0.6836 1.748 0.72146 0.47229 1.7576-0.93095 2.3242-1.248 11.145-8.8474 19.434-20.828 25.395-33.65 4.6118-9.8604 8.009-20.265 10.488-30.852-9e-3 -0.40195-0.3825-0.57755-0.73633-0.58398z" fill="#273755" stroke-width=".23622"/><path d="m285.39 251.23c-0.58297 0.0218-1.4883 0.5664-1.4883 0.5664s-14.866 36.76-33.244 58.756l-0.10352 3.0703s19.767-21.491 35.266-62.201c-0.0774-0.14862-0.23537-0.19869-0.42969-0.1914zm-4.8242 0.74804c-0.58419-0.0249-2.2364 0.46144-2.2364 0.46144s-11.402 31.554-27.135 51.177l-0.70662 4.2428s19.799-24.573 30.494-55.686c-0.0663-0.13259-0.22129-0.18703-0.41602-0.19532z" fill="#f9f9f9"/><path d="m347.76 189.95c-2.5734 0.79079-4.8393 2.5329-7.0762 3.9883-12.387 9.4813-22.984 21.093-32.73 33.215-5.5207 6.8902-10.498 14.196-15.08 21.738-1.1331-0.97386-2.344 0.73788-3.3887 1.1699-2.2652 0.92864-1.8801 3.7348-2.6504 5.668-1.6319 6.4572-3.8856 12.847-6.0762 19.174-0.21101 1.1042-0.34925 2.2183-0.45313 3.3379-0.2892-0.0369-0.60427 0.0357-0.83008 0.20704-5.0005 9.8882-10.266 20.155-17.321 28.468-3.6023 3.9445-7.9724 7.5593-12.043 10.976-0.17982 0.36401-0.26588 0.20896-0.21021 0.43696-1.2862 0.12414-2.7355 0.49302-3.8555 1.2031-0.0257-0.98172-2.9022-0.6446-4.0144-0.89568-13.191-2.3296-25.298-8.4436-37.568-13.63-0.17098-0.051-0.34731-0.0917-0.52734-0.084-0.29142 0.0997-0.50651 0.2347-0.66016 0.39648-0.068-0.2298-0.13516-0.46044-0.19922-0.69141-2.9241-2.229-6.5651-3.5746-9.7324-5.5293-1.2728-0.39529-2.6582-2.217-4.0215-1.3809-8.6557 9.2359-18.065 17.678-28.375 24.994-1.3094 0.79027-0.94368 2.2405-0.26172 3.3066 1.6601 6.3165 2.8042 13.211 2.122 19.77-2.226 5.0907-6.5863 8.8249-10.632 12.51-2.9824 2.3513-6.9505 5.8269-11.056 4.2383-4.7316-2.1025-9.2783-5.7329-11.508-10.464-1.1602-2.3374-0.70214-5.4217-2.3984-7.4414-2.0378-0.68053-2.415 2.2868-3.1719 3.5352-1.211 3.4385-2.9156 7.6498-0.43555 10.961 1.7004 2.6707 3.534 5.5077 3.3027 8.8145 0.12904 3.2351 0.33836 6.9222 3.1836 9.0352 5.3637 4.507 12.164 7.6322 19.199 8.1211 4.4468-0.0593 9.1259 0.40763 13.393-1.0527 0.1034-0.0797 0.20409-0.16186 0.30273-0.24609-0.76444 1.812-0.93317 3.852-0.38281 5.7852 1.1749 4.5451 3.3893 8.7766 5.9219 12.705 1.104 0.49077 2.9856-0.11264 4.5742 0.0801 4.9599-0.14775 9.7111-2.4655 14.436-3.7441 1.6115-0.14894 2.3174-0.76803 1.9629-2.4805 0.0226-3.345 1.6332-6.5614 1.75-9.8828-0.17189-1.2234-0.4548-2.4619-0.83398-3.623 12.385 0.70615 24.305 4.333 35.891 8.3086 12.338 4.3948 24.418 9.584 37.123 12.883 17.47 4.6582 35.95 7.1404 53.898 3.8926 3.4383-0.72147 7.0219-1.548 9.9863-3.4492 0.4896-1.6094-0.44633-3.4607-0.56836-5.1641-2.2815-12.805-6.3174-25.221-11.021-37.322 2.0473-10.336 4.1564-20.66 6.1367-31.01-1.0108-1.2676 0.21652-2.3403 0.8789-3.666 9.0358-15.788 17.77-31.788 28.277-46.621 9.4884-12.708 19.576-25.089 27.086-39.129 3.8478-7.2882 7.578-15.103 7.5898-23.525-0.46939-1.1172-1.6926-2.7822-3.0215-2.498-0.59556 0.17834-0.6894 1.3792-1.4707 0.64844-9.6973-5.5226-18.286-12.787-26.471-20.322-2.2262-1.8569-3.9976-4.3631-6.5606-5.7656-0.17485-0.0551-0.13127 0.3575-0.4082 0.0508zm-94.154 132.62c0.0539 0.0477 0.11206 0.0908 0.17383 0.1289-0.0537 0.097-0.0852 0.19069-0.0977 0.28321-0.025-5e-3 -0.0492-0.0105-0.0742-0.0156l-0.0156 0.01c0.0123-0.13143 0.0166-0.26616 0.0137-0.40625zm-39.363 1.2871c0.0406 0.0313 0.0803 0.0627 0.12109 0.0937-0.0499 9e-3 -0.10052 0.0183-0.15039 0.0273 0.0118-0.0387 0.0227-0.0797 0.0293-0.12109zm-23.844 17.738c0.30913 0.073 0.59507 0.0665 0.86133 2e-3 -0.35875 0.38383-0.71894 0.76704-1.082 1.1465 0.11406-0.36007 0.18936-0.74172 0.2207-1.1484z" fill="#f2f2f2" stroke-width=".47244"/><path d="m382.75 214.62s0.25 0.25-0.25 1.125-1.5 0.5-1.5 0.5c3.958 5.6977-3.469 20.305-6.375 31.375 0 0 6-11.125 8.625-16.875s2.5-11 2.375-12.75-2.875-3.375-2.875-3.375zm-101.19 59.732-0.61914 1.0606 0.04492 3.5352-1.0156 8.7949-1.1934 7.7793-1.8574 9.2363-2.8281 8.1758-2.5625 3.2266-3.9785 2.0762-6.2305 2.4316-7.5137 1.9004-0.26562 0.5293 1.9004 0.70703s7.3336-1.538 13.393-3.8887c8.0875-3.1378 9.3677-12.684 11.18-21.832 1.8092-9.1344 1.5477-23.688 1.5469-23.732zm-79.02 29.742s2.2991 13.081 4.332 17.412c1.8761 3.9969 2.3271 4.2319 2.3848 4.2441h0.00196l5.7012-1.5039s-3.2702-2.6507-4.375-3.9766c-1.1049-1.3258-5.7911-7.2478-7.3379-14.23-0.17678-1.1048-0.70703-1.9453-0.70703-1.9453zm126.53 11.623c-7.126 9.851-26.844 9.035-35.797 4.4199l8.3066 11.402c4.8981 3.4895 13.897 13.03 13.613 30.848l6.6289-31.555 7.248-15.115zm-135.2 1.5273s-12.125 19.5-15.375 26.875c1.1731 2.5975 2.9472 8.0053 3.6992 10.154-2.2037-2.7642-15.377-1.1324-16.074-0.1543-2.2098 3.1011-11.25 12.75-21.125 14.125s-19.375-5.875-19.375-5.875c2.75 3.25 1.75 10.875 2 12.125s3.875 3.5 10 7.375 17.125 3 17.125 3 7.625 0.125 8.125-1.375 8.625-10 9.875-11.5 11.625-10.625 11.625-10.625-0.0532-0.15077-0.14258-0.41992c0.47223-0.81805 1.3118-3.1349 2.1211-5.5332 2.3975-0.45862 15.459-2.7052 23.303 1.1367 8.6621 4.2426 13.435 5.4799 18.738 2.1211 5.3033-3.3588 8.1328-10.783 8.1328-10.783s-7.3372 9.8117-13.348 10.121-9.0585-2.4758-10.119-3.1387c-1.0546-0.65914-9.5372-7.0421-24.578-6.0723 0.0116-0.0376 0.01758-0.05664 0.01758-0.05664h-4.75l2-1.25 4-3.625 2.125-11.625 1.75-7 1.75-4.375-1.5-3.625zm76.328 15.09c-1.7236-1.3258 7.4254 5.9217 8.3535 10.297 0.92807 4.3752 1.0602 7.6027-2.5195 10.873-3.5797 3.2704-11.932 9.6344-19.799 13.523-7.8666 3.8891-15.779 10.43-16.928 11.49 0.0884-0.7513 2.3432-13.877 2.4316-15.158 0.0884-1.2816-2.4299-10.607-4.8164-14.584 0 0 3.2466 9.4114 3.1582 13.521-0.0884 4.1101-2.627 18.672-2.627 18.672s5.2142-4.4402 8.9707-7.0918c14.136-9.9786 32.79-17.369 33.453-25.545s-7.9542-14.672-9.6777-15.998zm-143.54 10.961s-2.3866 5.1253-3.0938 6.8047c-0.70711 1.6794-1.3262 5.0391-1.3262 5.0391s5.3051-9.9005 5.9238-8.8398c-0.7071-1.9446-1.5039-3.0039-1.5039-3.0039zm194.46 34.449s3.5 21.25-8 30.375c4.375-0.25 13.375-2.5 14.5-4.25-0.875-2.125-4.125-20.875-6.5-26.125zm-132.5 4.7188c-1.2188-0.0156-3.375 0.0937-7.125 0.59375-7.5 1-12.25 4.125-14 5.6875s-3.25 5.5625-3.25 5.5625l4.3125 7.9375 7.1875 0.0625 8.1875-2.5625 6-1.9375-0.5-2.875 1.1875-5.625 0.5-2-1-4.6875s-0.28125-0.14062-1.5-0.15625z" fill="#b7c4c8"/><path d="m280.55 276.92c-0.0882 5e-3 -0.17638 0.0315-0.25586 0.084-0.37796 0.38741-0.36064 0.96042-0.66407 1.3887-2.5466 5.9335-5.4957 11.697-8.9863 17.143-4.8971 7.6787-10.979 14.725-18.188 20.299-0.97665 0.78853-2.4251 2.0472-3.3848 2.8625-0.0269 0.0265-0.0496 0.0556-0.0684 0.084-1.0797 0.10258-1.4545 0.0893-2.4395 0.57202-0.12186-0.14874-0.81636-0.42186-1.0194-0.40909-4.2111-0.32261-8.1909-1.505-12.256-2.6387-7.5272-2.1823-14.853-4.9947-22.066-8.0684-2.4875-1.0515-4.9324-2.1996-7.3945-3.3066-0.0967-0.0368-0.19637-0.0644-0.30078-0.0625-0.45107 0.0217-0.58349 0.54101-0.41211 0.89453 1.8082 6.9015 5.7372 13.248 11.18 17.871 0.2451 0.21553 0.51735 0.46476 0.83789 0.50196-2.245 0.35605-4.4562 0.88915-6.543 1.8105-2.4488 1.1153-4.5544 2.8459-6.5332 4.6426-4.8433 4.5165-8.9155 9.7931-13.617 14.434-1.0508 1.0396-2.1979 1.9757-3.3184 2.9356-0.34501 0.39333 0.12074 1.001 0.59375 0.82031 4.8916-0.30752 9.7875-0.1017 14.6 0.86719 2.8935 0.57763 5.7358 1.4947 8.3184 2.9394 2.8955 1.5322 5.6663 3.3312 8.7207 4.543 2.0692 0.7876 4.3487 1.2979 6.5469 0.77149 2.0058-0.46913 3.7544-1.6511 5.4024-2.8398 2.0773-1.5314 3.8465-3.4291 5.5781-5.3301 0.5831-0.68779 1.1517-1.3891 1.7051-2.0996 0.0155 0.40371 0.3655 0.78824 0.48438 1.1758 1.6265 3.5663 3.1686 7.1761 4.2109 10.963 0.43138 1.5493 0.66101 3.2074 0.35157 4.8125-0.58244 4.1376-1.3369 8.2364-2.0352 12.355-0.0393 0.51843 0.66917 0.73076 0.97461 0.34179 4.7246-3.7727 10.014-6.7338 15.205-9.8008 5.3913-3.1787 10.907-6.2153 15.838-10.098 2.6694-2.1552 5.2761-4.6065 6.7109-7.7832 0.5661-1.2442 0.88128-2.6052 0.80664-3.9766 8e-3 -2.5139-1.1421-4.8692-2.5312-6.9023-1.2641-1.8379-2.9176-3.3619-4.5391-4.877-3.7696-3.1982-8.0393-5.753-12.43-8-1.9047-0.94152-3.8153-1.8896-5.8066-2.6348-0.0908-0.0286-0.18612-0.041-0.28125-0.0332-0.13345 0.0315-0.23075 0.093-0.30664 0.17382 0.0366-0.23399 0.0638-0.47012 0.0859-0.70703 0.20173 0.35052 0.73779 0.19202 1.0762 0.082 4.7542-1.2502 9.526-2.5981 13.959-4.7598 1.8632-0.94615 3.7877-2.0709 4.8652-3.9336 1.8043-3.0376 2.809-6.463 3.7109-9.8555 1.5642-6.1817 2.5318-12.498 3.3203-18.82 0.30794-2.6486 0.61512-5.3044 0.82227-7.959-2e-3 -0.29747-0.26278-0.48623-0.52734-0.47266zm-57.207 46.492c0.16515-6e-3 0.3309 0.0228 0.4961 0.0176-0.39801 0.0121-0.79566 0.0241-1.1934 0.043 0.23462-0.0104 0.46127-0.0523 0.69726-0.0606z" fill="#f55" stroke-width=".11811"/><path d="m280.9 275.86s-7.2489 14.851-13.348 24.396c-6.0988 9.5459-18.473 18.295-18.473 18.295h1.6797c9.1924-7.8666 13.966-11.49 17.943-17.5 3.9775-6.0104 11.932-19.004 11.932-19.004l0.26563-6.1875zm-78.312 28.373 0.35351 1.7676s27.843 14.408 41.896 14.762c-0.07912-0.23736 0.37271-0.54643 0.89648-0.81445-0.89123 0.71277-1.6292 2.8194-1.3594 4.3633-2.7671 0.55146-31.033 6.2739-28.979 9.5547 1.7232 2.7524 23.894-6.1666 28.994-9.4668 0.01891 0.09296 0.0416 0.18539 0.06836 0.27344-0.03081 0.2014-0.06839 0.44045-0.11523 0.71484-2.4574 1.2658-15.235 8.0424-14.355 11.639 0.90429 3.6994 11.443-7.2821 14.264-11.111-1.3243 7.294-7.4042 32.062-28.398 27.773-6.0847-1.2429-21.65-8.282-22.791-9.5293-2.7898-3.0487 7.6278-10.606 11.242-13.779 6.1461-5.396 24.433-6.6202 31.898-6.8965-6.5704-0.0177-20.892 0.17475-25.701 1.7051-5.5 1.75-11.625 8-14.562 11.688s-11.5 11.75-11.5 11.75 14.721 0.61719 20.221 2.0547 12.217 8.6953 18.092 7.4453 8.75-4.6875 12.75-9.4375 6.75-10.375 8.125-12.375 5.25-9.9375 5.25-9.9375-0.15785-0.01214-0.4082-0.0332c1.2656-0.13945 2.3356-0.62214 2.9316-0.94532 1.5391 1.5256 14.535 14.308 12.301 8.7109-2.1444-5.373-10.575-8.2665-12.184-8.7754 0.25078-0.14155 0.39063-0.24023 0.39063-0.24023s-4.7734 0.70756-5.4805 0.26562-0.08789-5.6562-0.08789-5.6562c-0.0323 0-0.06335 0.00142-0.0957 0.00586 0.4782-0.21147 0.89258-0.35937 0.89258-0.35937s-2.741-0.53025-5.0391-0.70704c-2.2981-0.17676-17.677-4.2442-25.014-8.0449s-14.496-6.3633-14.496-6.3633zm33.615 19.25c0.94312 3e-3 1.7261 0.00998 2.2988 0.01758 4.5625 0.0625 0.92969-0.09766 0.92969-0.09766s-1.224 0.00598-3.2285 0.08008zm17.299-0.29492-0.875 1.3125s20.75 5.9375 22.562 21.5-18.188 16.75-25.062 15.688c-6.8748-1.0625-10.015-13.921-0.73438-35.389-0.06492 0.12352-4.3738 8.3178-6.2656 11.326-1.3044 2.0742-6.625 10.25-6.625 10.25s3.6875 7 4.5625 11.25 0.3125 5.5-0.0625 8.1875-1.9375 11.25-1.9375 11.25 7.625-6.375 13.5-9.375 21.774-12.795 24.688-17.625c2.375-3.9375 3.25-6.1875 0.5-10.938s-10.562-11.25-14.438-12.875-9.8125-4.5625-9.8125-4.5625zm-4.1094 3.1113c3.2008 10.356 12.233 19.817 11.172 13.951-1.0625-5.875-11.188-14-11.188-14 0.00495 0.0161 0.01065 0.03274 0.01562 0.04883zm-4.6582-1.0312c0.17626 0.2659 0.41404 0.48035 0.72266 0.62109 0.11132 0.05077 0.22272 0.09661 0.33398 0.13867-0.15729-0.02871-0.29838-0.05899-0.41406-0.08984-0.32719-0.08727-0.5238-0.35549-0.64258-0.66992z" fill="#c83737"/></g><g stroke-width="1.8898"><path d="m289.02 250.73c-34.68 0.55755-39.323 33.334-38.877 65.449l-1.7422 3.0996c23.422-15.246 34.783-43.96 40.619-68.549zm-1.3766 0.99555c-10.119 42.688-28.713 59.106-37.717 65.836l0.19062-0.27608 0.82632-1.1968c0.0314-37.781 7.3445-63.182 36.7-64.364z"/><path d="m188.48 296.68c1.8506 3.256 42.274 22.739 59.137 22.637 0 0-0.71199-0.28549-1.6582-1.3106-7.7273-16.795-16.526-26.807-21.572-33.115 0.17841-7.7989-1.7148-10.094-1.7148-10.094-10.909 1.243-31.426 13.322-34.191 21.883zm33.393-20.689c1.4982 2.3655 1.5879 7.5597 1.5879 9.1367 16.795 20.028 21.643 32.994 21.643 32.994l1.0219 0.81115c-20.869-2.7852-54.631-20.268-55.675-22.812 4.2936-8.8849 21.231-18.339 31.422-20.131z"/><path d="m224.72 285.89s19.898-4.2866 28.71-4.9741l-0.23169 0.88258s-14.14 1.6433-27.453 4.8933"/><path d="m244.37 320.5c-0.27523 0.4186-0.68375 4.2618 0.33425 5.6123s7.1539 0.23186 8.3266-1.2518c1.1727-1.4837 0.64707-6.1697-0.0189-6.2471-2.682-0.31176-6.4273-0.36565-8.642 1.8867zm8.0586-1.0712c0.85377 0.39081 0.53871 3.9546-0.10566 5.073-0.64437 1.1184-4.9288 2.122-6.4095 1.1274-1.4807-0.99458-1.0321-3.994-0.5129-4.7375 1.4079-1.7152 5.6871-2.0767 7.0281-1.4629z"/><path d="m253.48 323.17s15.524-3.3574 19.774-8.3574 8.1692-30.28 8.0852-40.303l-0.58303 1.3116s-2.1759 29.819-8.3147 38.585c-2.836 4.0496-15.78 7.2671-18.891 8.0469z"/><path d="m253.36 322.73s26.214 9.8901 26.331 22.89c0.125 13.875-32.938 24.312-41.125 34.25 0 0 2.5333-13.432 2.6875-16.875 0.1875-4.1875-4.7424-14.809-4.7424-14.809l0.30492-1.0031s5.9268 12.066 5.4268 16.316-2.2241 13.636-2.2241 13.636c13.153-10.797 39.334-19.686 38.672-31.764-0.67415-12.304-25.438-21.938-25.438-21.938z"/><path d="m202.32 304.54s2.0312 11.133 11.719 19.445l1.2652-0.14329s-8.9908-6.3605-11.928-18.985"/><path d="m244.26 323.72s-28.063-3.1378-37.3 2.5191c-9.2366 5.6568-17.055 18.2-24.17 22.929 12.595 0.0442 18.601 0.75888 24.435 3.4547 5.8336 2.6958 11.225 7.8224 18.075 5.4359 6.8501-2.3865 16.381-15 24.071-31.794l-1.0897 0.10669s-10.437 25.258-23.342 30.738c-5.6127 2.1655-11.586-2.7259-17.173-5.506-9.1482-4.552-22.461-3.2672-22.461-3.2672 6.9811-5.136 14.385-16.863 22.391-21.46 7.2838-4.1823 27.592-3.4212 36.785-2.3164z"/><g><path d="m357.27 166.7c-0.94768 0.9477-8.3621 21.629-8.7363 22.674-16.033 6.4909-43.821 38.185-54.445 57.229-1.5702 1.3819-4.347 2.8285-5.8496 4.1543l0.0879 1.0606s2.3869-1.4139 4.7734-3.1816c-1.3258 2.2981-4.0664 7.7773-4.0664 7.7773s2.4764-4.1536 4.2441-6.3633c15.822-28.019 45.833-56.641 54.947-59.611 0.61872 0.97227 17.422 17.727 32.25 26.186 2.3064 1.3156 2.25-0.51562 2.25-0.51562 0.875 0.24999 2.0673 0.76464 2.0918 2.6875 0.19341 15.202-19.415 41.861-29.668 54.766-10.253 12.905-17.502 26.163-22.363 34.295-4.8614 8.1317-16.881 29.697-16.881 29.697l5.3906-8.1309s-5.5673 27.754-6.4512 32.527c8.5737 21.302 10.695 35.178 11.844 41.807-7.0711 4.2426-38.031 10.824-86.805-8.6621-52.753-21.076-65.577-12.638-72.648-6.0976 7.8666-5.3033 22.186-13.525 72.037 7.2461 49.851 20.771 85.117 11.934 88.918 8.0449-3.0052-18.12-8.8381-32.881-11.578-42.516 2.2097-14.938 6.3633-32.527 6.3633-32.527s11.844-27.4 33.588-55.154c21.744-27.754 26.83-41.634 29.256-49.586 2.3566-7.7256-1.7598-9.7025-2.3945-9.957 1.6442-5.4194 5.9192-11.454 10.439-16.912 0.4213-21.048-18.71-33.738-36.594-30.936zm35.268 30.582c-7.3114 8.583-10.369 16.609-10.876 18.238-2.4028-0.30543-17.046-9.3178-31.558-25.348-0.72276-0.79839 6.9922-22.166 8.1387-22.324 17.946-2.47 35.6 11.031 34.295 29.434z"/><path d="m288.12 270s-0.125 13.75 0.375 23.375 3.875 25.75 3.875 25.75-4.625-33.125-4.25-49.125z"/><path d="m295.5 323.38s4.25 8.375 13.25 14.75c0 0-11-11.5-13.25-14.75z"/><path d="m189.75 296.36c-11.875 13.25-26.002 24.264-30.377 26.764l0.875 0.875s16.263-10.47 30.138-26.47"/><path d="m194.98 322.26c-0.97227-6.1872-4.1543-15.114-4.1543-15.114s3.182 5.6568 4.8614 13.523z"/><path d="m198.52 312.81c-0.35356 3.8007-5.0156 10.361-5.5685 13.258s-3.7944 18.155-3.7944 18.155l0.74502-0.7428s3.3294-14.766 3.8007-17.412c0.47132-2.6461 4.6404-9.0156 4.8172-13.258z"/><path d="m187.83 348.6-3.8891 12.021s-21.125 18.517-21.92 24.881c-0.7955 6.364 5.8336 16.573 5.8336 16.573l1.591 0.0884s-7.4246-10.872-6.1872-16.705c1.2374-5.8336 21.655-24.042 22.097-24.926 1.149-4.331 3.4472-12.021 3.4472-12.021z"/><path d="m127 341.5s-5.3312 8.8335-5.25 14.625c0.0627 4.4686 4.125 5.375 4.375 8.375s0 7.875 2 10.875 11.375 10.125 22.5 10.25 12.39-0.9545 12.39-0.9545l0.60983-1.6705s-2.5 1.625-13.125 1.375-19.725-6.8068-21.675-9.9469c-1.5526-2.4991-0.75887-7.7184-1.4116-10.122-0.80895-2.9794-4.0737-5.2786-4.2879-8.5557-0.34046-5.209 4.25-12.375 4.25-12.375z"/><path d="m162.72 327.04c0.35355 0.26516 13.081 7.6014 20.771 31.201-5.5685-24.13-17.413-29.61-20.771-31.201z"/><path d="m125.12 331.25c-0.3298 0.85153 2.2714 17.905 3.7714 21.405s9.5089 11.265 14.907 11.08c5.073-0.17448 18.563-13.104 19.814-18.713 1.0767-4.8248-1.6174-19.271-2.7424-20.521s-4.5-5.375-5.375-5.375-2.875 1.125-2.875 1.125l0.32767 1.0482s1.6799-1.1063 2.6723-0.85631c1.1175 0.28152 3.7045 3.1452 4.625 4.8081 0.48807 0.88171 3.4895 14.221 2.2714 19.677-1.5 6.7188-14.33 17.389-18.701 17.806-5.1122 0.48748-12.047-7.3058-13.672-10.681s-4.3739-19.495-4.0571-20.107c0.36833-0.7113 1.0594-1.0259 2.2629-1.3438l-0.91605-0.82008s-1.9344 0.49242-2.3125 1.4688z"/><path d="m129.8 332.83s-1.6875 2.5723 0.5625 5.7598 8.082 6.203 12.052 5.4527c5.125-0.96875 12.296-5.9839 13.203-9.0464s1.8621-8.5228 1.2996-10.116-3.9214-3.1906-3.9214-3.1906l-0.17678 1.041s2.708 0.95895 3.2393 2.6464-0.35371 6.8663-1.1875 9.3125c-0.97032 2.8468-6.561 7.3357-12.531 8.625-5.0414 1.0887-14.656-5.2812-12.031-9.8125z"/><path d="m189.5 382.38 1.125 4.625 1.25-0.25-1.5-4.75z"/><path d="m209.38 385.19c-10.987 0.60417-17.142 1.0208-18.875 1.6875 0 0-1.5 7.7188-1.375 8.9688s0.28125 1.75 0.28125 1.75-11.75 3.875-13.938 4.2812-30.289-1.125-30.289-1.125c-2.77 2.8092-6.3096 7.8101-7.5549 16.931l1.1919-0.7254c0.70711-7.9798 4.2312-12.545 6.9514-15.206 2.9375 0 27.794 1.3125 29.794 0.8125s14.688-4.625 14.688-4.625-0.625-1.1875-0.5625-2.5625 1.6875-7.6875 1.6875-7.6875c2.5737-0.91019 7.8442-1.4676 18.938-1.875-0.125-0.1875-0.9375-0.625-0.9375-0.625z"/><path d="m191.36 398.19c0.17678 0.0442 5.3917 2.3423 15.822 2.8284-9.1482 0.0442-12.551-1.0607-15.822-2.8284z"/><path d="m159.54 409.86s-22.097 7.3362-23.246 8.1317c-1.149 0.79549-1.8562 13.877 3.3588 22.274l0.75266-0.57486s-5.8125-9.7188-3.2188-20.812c0.21875-0.71875 22.353-9.0182 22.353-9.0182z"/><path d="m169.26 417.63s-31.024 22.097-31.289 24.307c-0.69015 5.7512 16.707 23.494 40.393 22.097l0.66291-1.5026c-25.414 1.8964-39.949-16.615-39.657-19.965 0.23116-2.6548 29.89-24.936 29.89-24.936z"/><path d="m187.38 441.88s-10.125 21-9.5 23.5 14.154 3.5882 24 2.5c10.236-1.1313 19.625-4.25 19.625-4.25v-1.375s-10.724 3.6912-20.317 4.6616c-7.7919 0.78822-20.927 0.0916-21.433-1.9116-0.56982-2.2553 7.625-23.125 7.625-23.125z"/><path d="m189.01 438.32s3.5-11.5 11.25-21.125c-5.75 8.75-11.25 21.125-11.25 21.125z"/><path d="m213.38 401s11 0.6875 28.5-0.875c-12.75 1.875-21.5 1.9375-28.5 0.875z"/><path d="m224 432c-1.3061 11.343-4.0611 31.064-2.375 32.75 1.125 1.125 18.945-1.2812 38.195-10.156 0 0-0.38221-0.84903-0.64737-1.2026-16.661 9.104-35.614 11.249-36.567 10.559-1.3473-0.97542 1.394-31.95 1.394-31.95z"/><path d="m252.97 434.43s5.5038 19.876 7.4246 20.86c4.1652 2.1322 44.915-11.715 44.636-14.849-0.24744-2.7835-3.8462-12.005-15.556-20.153-1.3258-2.2097-5.5685-9.8995-5.5685-9.8995l4.773 10.341c10.704 7.9594 14.61 15.752 15.203 19.357 0.46539 2.8323-38.1 15.791-42.868 14.142-1.815-0.62779-8.0434-19.799-8.0434-19.799z"/><path d="m314.6 408.29s1.2058 13.963 3.3308 16.088 23.61 18.544 26.14 24.875c0 0-10.414-5.6909-21.519-6.4634-11.744-0.81694-19.71 1.1402-20.835 1.0152s-1.0647-0.93436-1.0647-0.93436l1.1973-0.62186s-0.29105 0.68436 0.58395 0.65311c0.875-0.0312 9.9081-2.0581 20.788-0.87722 11.058 1.2001 18.462 5.3772 18.462 5.3772-4.4491-6.5345-22.91-20.621-24.805-22.813-1.6774-1.9412-3.5076-16.155-3.5076-16.155z"/><path d="m343.48 448.83c-3.3594 3.0646-8.6202 2.9364-8.6953 2.9414-3.0048 5.7962-6.0668 9.4927-8.5918 10.977-1.4933 0.79757-4.623 1.8475-4.7285-1.0566-7.2555 8.1571-21.281 13.5-28.594 11.375-2.5312 1.3125-4.7188 1.1562-4.7188 1.1562s-0.83084 0.56143-0.21875 0.71875c1.7562 0.45138 5.0324-0.70171 5.0117-0.96289-2e-4 -1e-3 3.1e-4 -5e-3 0-6e-3 -4.3e-4 -9.9e-4 -3e-3 -5e-3 -4e-3 -6e-3 -6.6e-4 -9.3e-4 -3e-3 -5e-3 -4e-3 -6e-3 -7e-3 -7e-3 -0.0202-0.0149-0.0352-0.0195 9.335 2.0681 21.611-4.2198 28.219-11.031 0 0 0 3.125 5.3125 0.0625 5.0174-2.8924 8.737-9.7069 9.1348-10.455 2.3941-0.31678 5.1808-1.1298 8.4043-3.1934 0.18749-0.12003-0.49218-0.49414-0.49218-0.49414z"/><path d="m231.69 466.88 0.0663-1.0607c4.2434 5.4538 10.407 5.7411 10.894 5.469l-0.11048 0.67396c-2.778-0.18762-6.25-0.76062-10.85-4.7386z"/><path d="m332.38 309.4s15.247 21.478 15.335 24.042c0.0884 2.5633-29.212 17.324-29.212 17.324l-0.0442-0.92808s27.666-14.584 28.019-16.44c0.35356-1.8562-14.761-23.246-14.761-23.246z"/><path d="m252 410.83s1.5026 10.253 0.44194 19.092c1.591-8.2201 0.35355-14.407-0.44194-19.092z"/><path d="m357.8 167.41s-0.70711-14.672-0.17678-16.263c0.88388-2.6516 10.607-16.617 13.081-17.501s7.8224 0.13259 7.8224 0.13259l-1.5231 0.78673s-3.9148-0.75314-5.7898-0.12814-12.273 15.191-12.585 16.941 0.55622 15.651 0.55622 15.651z"/><path d="m360.5 159.94s6-8 6.8125-9.125 6.904-16.229 9.0915-16.979 10.155-1.5161 14.593 1.4839c-0.4375 3.5625-1.4688 7.9344-8.3125 11.309-0.625 3.25-2.4344 8.6228-2.4344 8.6228 0.8125 1.3125 4.4375 6.75 3.6875 11.5-0.75-4.375-3.875-10-4.6875-10.938 0.375-1.8125 2.25-7.0938 2.5625-9.5312-1.0156 0.32812-2.125 0.46875-2.125 0.46875s9.9062-2.5938 10.156-10.844c-2.8125-2.625-12.121-1.7662-12.906-1.2812-2.125 1.3125-8.0625 15.875-8.6875 16.438s-7.75 8.875-7.75 8.875z"/><path d="m390.15 137.27s7.8666 3.9333 9.0598 7.2036c1.1932 3.2704-7.1594 15.468-10.739 17.28-3.5797 1.812-5.5622 1.0013-5.5622 1.0013l-0.13258-1.0165s2.0266 1.3852 5.3854-0.51516 11.049-13.302 10.12-16.263c-0.92807-2.961-8.3085-6.8501-8.3085-6.8501z"/><path d="m398.85 146.64 0.13258-1.6352s5.701 6.4082 5.922 11.579c0.10574 2.4742-3.1378 6.364-5.6127 8.3969s-8.0433 4.552-8.883 4.5962c-0.83969 0.0442-3.0936-3.3588-3.403-5.1265s-0.13258-2.3423-0.13258-2.3423l0.7513-0.26517s-0.0442 1.149 0.26516 2.6516c0.30936 1.5026 1.9446 3.8891 2.5191 4.0659 0.57453 0.17678 5.8185-1.9477 8.2933-3.8967 2.7011-2.1271 5.0577-5.639 5.0975-7.9474 0.0884-5.1265-4.9498-10.076-4.9498-10.076z"/><path d="m404 158.69s3.5601 3.572 2.6875 7.0625c-0.6875 2.75-1.5625 4.125-2.75 5s-8.125 4.8125-10.5 4.4375-2.4375-6.0625-2.4375-6.0625l0.9375-0.3125s-0.46572 4.0585 1.25 5.25c2.25 1.5625 9.0307-2.9682 10.438-4.125 1.502-1.2351 2.0508-2.7927 2.3125-4.625 0.5-3.5-2.6875-5.9375-2.6875-5.9375z"/><path d="m381.06 157.06s4.3125-8.875 4.3125-9.4375-1.6875-1.8125-1.6875-1.8125l-0.8125 0.4375s1.25 0.6875 1.3125 1.4375-3.75 8.75-3.75 8.75z"/><path d="m406.06 167s1.25 2.5 0.6875 5.625c-1.1355 6.3084-10.773 6.9073-12.125 6.0625-0.5-0.3125-1.25-3.6875-1.25-3.6875l0.9375-0.125s0.1875 2.625 0.875 3.1875c0.82079 0.67155 13.231 0.23982 10.688-9.9375-0.125-0.5 0.1875-1.125 0.1875-1.125z"/><path d="m400.89 178.15c0.35355-0.0884 1.0165-0.35356 1.0165-0.35356s-1.0607 3.8007-9.7669 8.8388l-0.66291-1.149s5.7452-2.4307 9.4134-7.3362z"/><path d="m120.19 311.25c-0.90612 11.216 10.425 25.784 17.812 28 1.875 0.5625 13.625-4.3125 15.25-6.625 1.5267-2.1726 1.5677-4.0196 0.15181-5.7888-0.69857-0.87292-3.9018-0.89867-9.2143 1.8513 6-1.6875 7.7143-2.6013 8.5893-1.1013s0.89333 2.5046-0.49556 4.6326c-1.2516 1.9176-11.286 6.428-14.031 5.9688-4.5916-0.76805-18.061-15.43-16.875-27 0.76197-7.4329 16.126-15.288 20.938-11.375 2.7106 2.2044 4.5 7.6875 4.5 7.6875l0.9375 0.3125s-1.5437-5.5834-4.5625-8.5625c-4.7872-4.7243-22.079 3.505-23 12z"/><path d="m130.81 312.38s14.312-6.5625 17.312-5.0625 3.5625 10.188 3.5625 10.188l-1.0625-0.25s-0.5-7.5-2.9375-9-16.875 4.125-16.875 4.125z"/><path d="m137.5 320.06c0.75-0.125 12.75-4.375 14.625-3.0625s0.5625 9.5 0.5625 9.5l-1.0625-0.1875s1.75-7.25-0.125-8.3125c-2.2773-1.2905-14 2.0625-14 2.0625z"/><path d="m143.12 299.75c13.507-2.819 15.904 15.658 14.562 17-1.4375 1.4375-5 2.3125-5 2.3125l-0.625-0.75s3.3635-0.82523 4.8125-2.125c1.186-1.0638-1-17.625-13.188-15.688z"/></g></g></g><g stroke-width="1.8898"><path d="m188.75 467.88c0.29385 10.316 4.6832 17.156 12.125 23.875-8.2467-7.2865-11.351-15.175-11.751-23.956z"/><path d="m188.25 470.29c-2.0329 6.1872-12.667 24.681-12.667 35.023 1e-5 9.1924 5.3475 25.367 5.3475 25.367l0.17677-1.3258s-4.5368-14.137-4.6846-23.865c-0.14471-9.5284 9.5356-27.465 12.905-34.913l-0.26452-2.6625-0.68425-0.27657z"/><path d="m231.75 463.51 1.149-0.26516s-1.7493 19.668-3.3588 22.804c-6.9282 13.5-17.94 24.635-24.218 39.068-0.17678-0.0884-0.44194-0.53032-0.44194-0.53032 6.5222-13.97 16.889-25.328 23.953-38.891 1.6343-3.1375 2.9168-22.185 2.9168-22.185z"/><path d="m243.19 460.44s-7.6875 51.062-8.3125 56.562-0.29 22.592-0.75 23.25c-0.65073 0.93143-0.71875 3-0.71875 3l1.3125-0.4375s-0.2776-1.5912 0.3125-2.25c0.60411-0.67444 0.17014-21.346 0.52369-23.555 0.35355-2.2097 8.8656-56.878 8.8656-56.878z"/><path d="m300.12 443.31 1.5-0.3125s-17.875 41.688-19.062 47.25-3.375 20.5-3.5625 23.875c-3.2496 15.718-9.7456 32.805-20.125 44.562l0.375-1.875c11.632-12.086 18.191-38.172 18.75-41.688 0.5-3.625 2.625-22.75 3.875-26.438s18.25-45.375 18.25-45.375z"/><path d="m247.61 491.18c-0.0631 4.5384 1.9702 8.729 1.9702 8.729s-1.7562-6.2938-1.9702-8.729z"/><path d="m259.6 500.81c3.3588-2.5633 7.2478-6.2756 7.2478-6.2756s-2.2097 3.3588-7.2478 6.2756z"/><path d="m235.5 514.34v-0.53125s6-11.438 21.062-9.3125 20.375 17.688 20.375 17.688l-0.21875 0.6875s-5.0625-15.562-19.938-17.938-21.281 9.4062-21.281 9.4062z"/><path d="m186.9 474.82s0.35608 21.823 18.046 28.241c10.46 3.7948 15.056-2.4976 15.056-2.4976l0.0442-0.46404s-4.6537 6.3089-14.938 2.6516c-18.083-6.4308-17.766-29.124-17.766-29.124z"/><path d="m195.12 519.13c-4.0253 0.0548-7.773 2.0737-8.584 5.9316-1.9846 1.3825-4.2702 1.2417-6.7422 0.67774 2.7764 13.633-2.6666 29.026 16.561 30.934 7.6456 0.7955 8.2192-5.7013 8.1309-8.7949-0.0884-3.0936 3.5806-17.28 0.88476-22.893-1.9215-4.0006-6.2247-5.9103-10.25-5.8555z"/><path d="m230.69 574.52s-12.286-5.3033-4.1543-18.915c8.1317-13.612 6.7175-12.816 6.7175-12.816s4.8882-7.8862 13.081-6.0104c10.051 2.3013 8.3085 15.291 8.3085 15.291 0.14996 2.5051 3.8598 4.5878 5.3917 4.5078-0.44194 2.4749-3.8145 12.746-13.877 17.059-6.8059 2.9168-15.468 0.88389-15.468 0.88389z"/></g><path d="m334.64 140.91-2.2873-4.943 1.709-1.5051c3.1785-2.7993 4.6868-6.4151 4.2423-10.17-0.30911-2.6107-1.083-4.8828-3.37-9.8997-1.155-2.5333-2.1696-4.9447-2.2545-5.3587-0.10044-0.49122 0.0884-1.1477 0.5441-1.8891 0.50987-0.82958 0.62692-1.2972 0.4335-1.7319-0.26189-0.5886-0.29989-0.57277-3.291 1.3716l-3.026 1.967 3.3731 7.2895c3.6567 7.9024 4.2203 9.6042 4.0319 12.174-0.10378 1.4161-1.3051 3.6492-2.6266 4.8824l-0.76364 0.71263-14.576-31.501-3.5864 2.3313 14.576 31.501-0.91748 0.38014c-1.5676 0.64954-3.7216 0.64851-4.8349-2e-3 -1.8848-1.1017-2.9648-2.853-6.6073-10.715l-3.3112-7.1456-3.026 1.967c-2.9894 1.9432-3.0227 1.9742-2.7507 2.5557 0.204 0.43581 0.5549 0.55258 1.352 0.44951 1.4791-0.19127 2.0049 0.52051 4.7437 6.4215 1.4595 3.144 2.6445 5.389 3.3706 6.384 3.0194 4.1373 6.1955 4.9142 11.088 2.7121l1.8906-0.85093 4.5746 9.886 1.7932-1.1656 1.7932-1.1656z" fill="#e3e9f7" stroke="#000" stroke-width=".497"/></svg>
